<?xml version="1.0" encoding="UTF-8" standalone="no"?>
<!-- Created with Inkscape (http://www.inkscape.org/) -->

<svg
   xmlns:dc="http://purl.org/dc/elements/1.1/"
   xmlns:cc="http://creativecommons.org/ns#"
   xmlns:rdf="http://www.w3.org/1999/02/22-rdf-syntax-ns#"
   xmlns:svg="http://www.w3.org/2000/svg"
   xmlns="http://www.w3.org/2000/svg"
   xmlns:xlink="http://www.w3.org/1999/xlink"
   xmlns:sodipodi="http://sodipodi.sourceforge.net/DTD/sodipodi-0.dtd"
   xmlns:inkscape="http://www.inkscape.org/namespaces/inkscape"
   width="500mm"
   height="300mm"
   viewBox="0 0 500 300"
   version="1.1"
   id="svg8"
   inkscape:version="0.92.3 (unknown)"
   sodipodi:docname="GameBoy_Advance_Vector.svg">
  <defs
     id="defs2">
    <linearGradient
       inkscape:collect="always"
       id="linearGradient1371">
      <stop
         style="stop-color:#babdb6;stop-opacity:1;"
         offset="0"
         id="stop1367" />
      <stop
         style="stop-color:#babdb6;stop-opacity:0;"
         offset="1"
         id="stop1369" />
    </linearGradient>
    <linearGradient
       inkscape:collect="always"
       id="linearGradient1031">
      <stop
         style="stop-color:#ffffff;stop-opacity:0"
         offset="0"
         id="stop1027" />
      <stop
         id="stop1037"
         offset="0.10328414"
         style="stop-color:#ffffff;stop-opacity:0.67512691" />
      <stop
         style="stop-color:#ffffff;stop-opacity:1"
         offset="0.21739215"
         id="stop1039" />
      <stop
         id="stop1041"
         offset="0.27016214"
         style="stop-color:#ffffff;stop-opacity:0.05583756" />
      <stop
         style="stop-color:#ffffff;stop-opacity:0.69803922;"
         offset="0.37089175"
         id="stop1043" />
      <stop
         id="stop1047"
         offset="0.58815455"
         style="stop-color:#ffffff;stop-opacity:0.84517765" />
      <stop
         id="stop1045"
         offset="0.6195671"
         style="stop-color:#ffffff;stop-opacity:0" />
      <stop
         style="stop-color:#ffffff;stop-opacity:0.27843137;"
         offset="0.74533188"
         id="stop1049" />
      <stop
         id="stop1051"
         offset="0.84825218"
         style="stop-color:#ffffff;stop-opacity:0.16470588;" />
      <stop
         style="stop-color:#ffffff;stop-opacity:0;"
         offset="1"
         id="stop1029" />
    </linearGradient>
    <linearGradient
       inkscape:collect="always"
       id="linearGradient1000-3">
      <stop
         style="stop-color:#cc0000;stop-opacity:1"
         offset="0"
         id="stop996" />
      <stop
         id="stop1015"
         offset="0.24772875"
         style="stop-color:#f57900;stop-opacity:1" />
      <stop
         id="stop1013"
         offset="0.5037927"
         style="stop-color:#edd400;stop-opacity:1" />
      <stop
         id="stop1011"
         offset="0.64796317"
         style="stop-color:#73d216;stop-opacity:1" />
      <stop
         id="stop1009"
         offset="0.80074084"
         style="stop-color:#3167cd;stop-opacity:1" />
      <stop
         style="stop-color:#5c3566;stop-opacity:1"
         offset="1"
         id="stop998" />
    </linearGradient>
    <linearGradient
       inkscape:collect="always"
       id="linearGradient984">
      <stop
         style="stop-color:#4ec2f3;stop-opacity:1"
         offset="0"
         id="stop980" />
      <stop
         style="stop-color:#435dbf;stop-opacity:1"
         offset="1"
         id="stop982" />
    </linearGradient>
    <linearGradient
       inkscape:collect="always"
       xlink:href="#linearGradient984"
       id="linearGradient986"
       x1="250.58075"
       y1="203.93535"
       x2="250.58075"
       y2="59.502899"
       gradientUnits="userSpaceOnUse" />
    <linearGradient
       inkscape:collect="always"
       xlink:href="#linearGradient1000-3"
       id="linearGradient1002"
       x1="187.82073"
       y1="133.59001"
       x2="310.77991"
       y2="133.59001"
       gradientUnits="userSpaceOnUse" />
    <linearGradient
       inkscape:collect="always"
       xlink:href="#linearGradient1031"
       id="linearGradient1261"
       gradientUnits="userSpaceOnUse"
       x1="466.25284"
       y1="176.80078"
       x2="1465.5109"
       y2="982.80078" />
    <linearGradient
       inkscape:collect="always"
       xlink:href="#linearGradient1000-3"
       id="linearGradient1303"
       gradientUnits="userSpaceOnUse"
       x1="187.82073"
       y1="133.59001"
       x2="310.77991"
       y2="133.59001" />
    <linearGradient
       inkscape:collect="always"
       xlink:href="#linearGradient1000-3"
       id="linearGradient1305"
       gradientUnits="userSpaceOnUse"
       x1="187.82073"
       y1="133.59001"
       x2="310.77991"
       y2="133.59001" />
    <linearGradient
       inkscape:collect="always"
       xlink:href="#linearGradient1000-3"
       id="linearGradient1307"
       gradientUnits="userSpaceOnUse"
       x1="187.82073"
       y1="133.59001"
       x2="310.77991"
       y2="133.59001" />
    <linearGradient
       inkscape:collect="always"
       xlink:href="#linearGradient1000-3"
       id="linearGradient1309"
       gradientUnits="userSpaceOnUse"
       x1="187.82073"
       y1="133.59001"
       x2="310.77991"
       y2="133.59001" />
    <linearGradient
       inkscape:collect="always"
       xlink:href="#linearGradient1000-3"
       id="linearGradient1311"
       gradientUnits="userSpaceOnUse"
       x1="187.82073"
       y1="133.59001"
       x2="310.77991"
       y2="133.59001" />
    <linearGradient
       inkscape:collect="always"
       xlink:href="#linearGradient1000-3"
       id="linearGradient1313"
       gradientUnits="userSpaceOnUse"
       x1="187.82073"
       y1="133.59001"
       x2="310.77991"
       y2="133.59001" />
    <linearGradient
       inkscape:collect="always"
       xlink:href="#linearGradient1000-3"
       id="linearGradient1315"
       gradientUnits="userSpaceOnUse"
       x1="187.82073"
       y1="133.59001"
       x2="310.77991"
       y2="133.59001" />
    <linearGradient
       inkscape:collect="always"
       xlink:href="#linearGradient1000-3"
       id="linearGradient1317"
       gradientUnits="userSpaceOnUse"
       x1="187.82073"
       y1="133.59001"
       x2="310.77991"
       y2="133.59001" />
    <radialGradient
       inkscape:collect="always"
       xlink:href="#linearGradient1371"
       id="radialGradient1373"
       cx="75.40625"
       cy="123.45883"
       fx="75.40625"
       fy="123.45883"
       r="7.5406251"
       gradientUnits="userSpaceOnUse"
       gradientTransform="matrix(1.8947374,0,0,1.894737,-67.46879,-112.27485)" />
  </defs>
  <sodipodi:namedview
     id="base"
     pagecolor="#ffffff"
     bordercolor="#666666"
     borderopacity="1.0"
     inkscape:pageopacity="0.0"
     inkscape:pageshadow="2"
     inkscape:zoom="0.5"
     inkscape:cx="877.69705"
     inkscape:cy="520.89651"
     inkscape:document-units="mm"
     inkscape:current-layer="layer1"
     showgrid="false"
     showguides="true"
     inkscape:guide-bbox="true"
     inkscape:snap-bbox="true"
     inkscape:snap-object-midpoints="true"
     inkscape:snap-center="true"
     inkscape:bbox-paths="true"
     inkscape:bbox-nodes="true"
     inkscape:snap-bbox-edge-midpoints="true"
     inkscape:snap-bbox-midpoints="true"
     inkscape:window-width="1920"
     inkscape:window-height="1024"
     inkscape:window-x="0"
     inkscape:window-y="28"
     inkscape:window-maximized="1"
     inkscape:object-paths="true"
     inkscape:snap-intersection-paths="true"
     inkscape:snap-smooth-nodes="true"
     inkscape:snap-global="true">
    <sodipodi:guide
       position="106.49479,225.65179"
       orientation="1,0"
       id="guide828"
       inkscape:locked="false" />
  </sodipodi:namedview>
  <metadata
     id="metadata5">
    <rdf:RDF>
      <cc:Work
         rdf:about="">
        <dc:format>image/svg+xml</dc:format>
        <dc:type
           rdf:resource="http://purl.org/dc/dcmitype/StillImage" />
        <dc:title></dc:title>
      </cc:Work>
    </rdf:RDF>
  </metadata>
  <g
     inkscape:label="Ebene 1"
     inkscape:groupmode="layer"
     id="layer1"
     transform="translate(0,3)">
    <path
       style="fill:#eeeeec;stroke:#babdb6;stroke-width:1.11947322px;stroke-linecap:butt;stroke-linejoin:miter;stroke-opacity:1"
       d="m 124.35854,20.687128 c 0,0 -3.46858,-1.387092 -5.30273,-1.588656 -6.39042,-0.702275 -12.84437,0.703954 -19.236477,1.390756 -8.811778,0.946784 -17.532648,2.610474 -26.320271,3.760038 -6.652701,0.870278 -13.371313,1.260769 -19.987568,2.374761 -2.130822,0.358753 -4.298053,0.657738 -6.332704,1.385281 -3.555723,1.271444 -7.067431,2.885389 -10.092734,5.145315 -2.841056,2.122293 -5.245033,4.843749 -7.322184,7.717973 -1.797828,2.487714 -3.225814,5.259173 -4.353722,8.113773 -0.777618,1.968053 -1.744094,4.021629 -1.632656,6.134803 0.03808,0.718099 0.366666,1.420167 0.771005,2.014815 0.426966,0.62791 0.984517,1.232738 1.67921,1.539276 0.906339,0.399921 2.003606,0.522377 2.960144,0.264654 3.893651,-1.049084 6.123866,-5.510698 9.877173,-6.985078 7.867135,-3.090376 16.857659,-1.642975 25.132895,-3.364237 14.637489,-3.044618 30.093608,-4.970406 43.141499,-12.269608 6.72285,-3.760871 17.01912,-15.633866 17.01912,-15.633866 z"
       id="path898"
       inkscape:connector-curvature="0"
       sodipodi:nodetypes="caaaaaaaaaaaaaaac"
       inkscape:transform-center-x="41.581912"
       inkscape:transform-center-y="-3.505856" />
    <path
       inkscape:transform-center-y="-3.505856"
       inkscape:transform-center-x="-41.581913"
       sodipodi:nodetypes="caaaaaaaaaaaaaaac"
       inkscape:connector-curvature="0"
       id="path900"
       d="m 375.64146,20.687128 c 0,0 3.4686,-1.387092 5.30273,-1.588656 6.39041,-0.702275 12.84438,0.703954 19.23648,1.390756 8.81178,0.946784 17.53267,2.610474 26.32028,3.760038 6.6527,0.870278 13.37131,1.260769 19.98758,2.374761 2.13082,0.358753 4.29802,0.657738 6.3327,1.385281 3.55572,1.271444 7.06743,2.885389 10.09274,5.145315 2.84104,2.122293 5.24501,4.843749 7.32218,7.717973 1.79782,2.487714 3.22581,5.259173 4.35369,8.113773 0.77763,1.968053 1.7441,4.021629 1.63269,6.134803 -0.0381,0.718099 -0.36683,1.420167 -0.77103,2.014815 -0.42696,0.62791 -0.98453,1.232738 -1.67919,1.539276 -0.90634,0.399921 -2.00362,0.522377 -2.96014,0.264654 -3.89366,-1.049084 -6.1239,-5.510698 -9.87721,-6.985078 -7.8671,-3.090376 -16.85764,-1.642975 -25.13287,-3.364237 -14.6375,-3.044618 -30.0936,-4.970406 -43.14149,-12.269608 -6.72284,-3.760871 -17.01914,-15.633866 -17.01914,-15.633866 z"
       style="fill:#eeeeec;stroke:#babdb6;stroke-width:1.11947322px;stroke-linecap:butt;stroke-linejoin:miter;stroke-opacity:1" />
    <path
       inkscape:connector-curvature="0"
       style="fill:#3465a4;stroke:#204a87;stroke-width:1.11947322px;stroke-linecap:butt;stroke-linejoin:miter;stroke-opacity:1"
       d="m 237.92196,8.6683106 c -22.43073,-0.031681 -70.73599,0.1252579 -98.27096,1.8803684 -2.40874,0.153547 -4.89006,0.08407 -7.19567,0.798061 -2.1642,0.670195 -4.02752,2.079825 -5.99749,3.198805 -7.17434,4.075174 -13.78775,9.14856 -21.1891,12.795233 -8.21407,4.047098 -16.796366,7.434579 -25.588273,9.994356 -7.955,2.316111 -16.248886,3.246976 -24.387894,4.797122 -5.058564,0.963441 -10.293344,1.216655 -15.193794,2.798683 -2.66635,0.860785 -5.459727,1.785773 -7.595805,3.598928 -1.606478,1.36363 -2.769073,3.260331 -3.598928,5.197244 -1.554276,3.627765 -1.726552,7.705782 -2.398561,11.594855 -3.459441,20.020862 -6.159879,40.178724 -8.396049,60.372844 -1.604239,14.48738 -2.735736,29.02822 -3.598928,43.57856 -0.655496,11.04926 -1.851911,22.13472 -1.198183,33.18408 0.358455,6.05871 1.111984,12.16224 2.798683,17.99247 1.210934,4.18571 2.675597,8.43921 5.197233,11.9928 2.728951,3.84572 6.498375,6.93988 10.394489,9.59641 4.03822,2.75344 8.588073,4.76007 13.193172,6.39762 9.289456,3.30338 19.261299,4.25276 28.787076,6.79555 7.658911,2.04447 15.303637,4.19026 22.789589,6.79775 4.066483,1.41644 8.034803,3.10612 11.994993,4.79711 4.44285,1.89714 8.68798,4.25357 13.19316,5.99749 4.04829,1.5671 8.187,2.92235 12.39291,3.99688 5.52068,1.41047 11.16533,2.30075 16.7921,3.1988 8.22716,1.31311 16.48916,2.48984 24.79022,3.19881 12.62596,1.07837 25.31428,1.24394 37.98119,1.6005 12.12406,0.34144 36.38288,0.516 36.38288,0.516 0,0 24.25881,-0.17456 36.38289,-0.516 12.66688,-0.35656 25.35523,-0.52213 37.98118,-1.6005 8.30109,-0.70897 16.56309,-1.8857 24.79022,-3.19881 5.62679,-0.89805 11.27143,-1.78833 16.7921,-3.1988 4.20594,-1.07453 8.34463,-2.42978 12.39292,-3.99688 4.50516,-1.74392 8.75032,-4.10035 13.19316,-5.99749 3.96022,-1.69099 7.92854,-3.38067 11.99499,-4.79711 7.48596,-2.60749 15.1307,-4.75328 22.78959,-6.79775 9.52581,-2.54279 19.49762,-3.49217 28.78707,-6.79555 4.60511,-1.63755 9.15499,-3.64418 13.19318,-6.39762 3.8961,-2.65653 7.66552,-5.75069 10.39449,-9.59641 2.52163,-3.55359 3.98629,-7.80709 5.19723,-11.9928 1.68669,-5.83023 2.44032,-11.93376 2.79868,-17.99247 0.65371,-11.04936 -0.5427,-22.13482 -1.19818,-33.18408 -0.86323,-14.55034 -1.99468,-29.09118 -3.59893,-43.57856 -2.23617,-20.19412 -4.93663,-40.351982 -8.39605,-60.372844 -0.67202,-3.889073 -0.84427,-7.96709 -2.39856,-11.594855 -0.82984,-1.936913 -1.99243,-3.833614 -3.59893,-5.197244 -2.13606,-1.813155 -4.92946,-2.738143 -7.5958,-3.598928 -4.90049,-1.582028 -10.13524,-1.835242 -15.1938,-2.798683 -8.13903,-1.550146 -16.43287,-2.481011 -24.38789,-4.797122 -8.7919,-2.559777 -17.37418,-5.947258 -25.58827,-9.994356 -7.40135,-3.646673 -14.01476,-8.720059 -21.1891,-12.795233 -1.96999,-1.11898 -3.83329,-2.52861 -5.99749,-3.198805 -2.3056,-0.714 -4.78697,-0.644514 -7.19567,-0.798061 -36.7133,-2.3401473 -110.34903,-1.8388248 -110.34903,-1.8388248 0,0 -4.60116,-0.031009 -12.07806,-0.041532 z"
       id="path826" />
    <path
       inkscape:connector-curvature="0"
       style="fill:#000000;stroke:none;stroke-width:1.11947322px;stroke-linecap:butt;stroke-linejoin:miter;stroke-opacity:1"
       d="m 250.00002,37.735256 c 0,0 -39.21074,1.689218 -58.77235,3.198816 -9.34768,0.721367 -18.68686,1.611247 -27.98683,2.798684 -6.02042,0.768686 -12.06461,1.496041 -17.99247,2.798683 -2.84285,0.624699 -5.82311,1.037662 -8.39605,2.39855 -0.9201,0.486668 -1.70286,1.224211 -2.39855,1.998439 -1.28468,1.429657 -2.52685,2.998531 -3.19882,4.799305 -2.95891,7.929386 -2.33312,16.768837 -3.19661,25.188149 -1.56847,15.292755 -2.74294,30.627988 -3.59894,45.977118 -0.891,15.97653 -1.23517,31.98055 -1.6005,47.97773 -0.24645,10.79294 -0.62277,21.59044 -0.39793,32.38384 0.10288,4.93713 0.0856,9.90711 0.79806,14.79366 0.49432,3.39054 0.97675,6.87908 2.39855,9.99655 1.42719,3.12922 3.34818,6.20289 5.9975,8.39605 2.93971,2.43355 6.78773,3.55631 10.39667,4.79712 12.16692,4.18318 24.95644,6.31582 37.58107,8.79617 9.13711,1.79516 18.32747,3.40908 27.58671,4.39699 7.29935,0.77877 14.65648,0.85939 21.98933,1.20038 6.92773,0.32198 20.79116,0.79806 20.79116,0.79806 0,0 13.86344,-0.47608 20.79116,-0.79806 7.33288,-0.34099 14.69001,-0.42161 21.98934,-1.20038 9.25925,-0.98791 18.44961,-2.60183 27.58671,-4.39699 12.62461,-2.48035 25.41413,-4.61299 37.58106,-8.79617 3.60895,-1.24081 7.45697,-2.36357 10.39667,-4.79712 2.64934,-2.19316 4.57031,-5.26683 5.9975,-8.39605 1.42181,-3.11747 1.90424,-6.60601 2.39855,-9.99655 0.71244,-4.88655 0.69525,-9.85653 0.79807,-14.79366 0.2248,-10.7934 -0.15127,-21.5909 -0.39793,-32.38384 -0.36532,-15.99718 -0.70953,-32.0012 -1.6005,-47.97773 -0.85604,-15.34913 -2.03047,-30.684363 -3.59894,-45.977118 -0.86352,-8.419312 -0.2377,-17.258763 -3.19661,-25.188149 -0.67199,-1.800774 -1.91418,-3.369648 -3.19882,-4.799305 -0.69571,-0.774228 -1.47847,-1.511771 -2.39855,-1.998439 -2.57293,-1.360888 -5.55324,-1.773851 -8.39605,-2.39855 -5.92791,-1.302642 -11.97203,-2.029997 -17.99248,-2.798683 -9.29995,-1.187437 -18.63915,-2.077317 -27.98683,-2.798684 -19.56164,-1.509598 -58.77235,-3.198816 -58.77235,-3.198816 z"
       id="path859" />
    <path
       style="fill:url(#linearGradient1261);stroke:none;stroke-width:4.23108006px;stroke-linecap:butt;stroke-linejoin:miter;stroke-opacity:1;fill-opacity:1;opacity:0.5"
       d="M 944.88281 159.63672 C 944.44957 159.6554 796.75526 166.02565 723.18555 171.70312 C 687.92335 174.42435 652.72071 177.77739 617.69141 182.25 C 594.90996 185.15873 572.23519 187.89723 550.1875 192.74219 C 539.14342 195.16906 528.43091 196.764 519.88672 201.2832 C 517.32715 202.63705 514.8016 204.92793 512.38867 207.61328 C 507.69699 212.83442 503.51129 218.27279 501.39453 223.94531 C 490.78528 252.37641 492.97364 285.24208 489.64062 317.74023 C 483.72249 375.44266 479.28949 433.31574 476.05859 491.25 C 472.69822 551.50474 471.39651 611.92979 470.01562 672.39648 C 469.0831 713.23409 467.66631 753.96138 468.51172 794.54492 C 468.90248 813.29716 468.85897 831.84474 471.4707 849.75781 C 473.34304 862.60031 475.17256 875.23414 480.08398 886.00391 L 480.08398 886.00586 C 485.26266 897.36009 492.16371 908.23672 501.20898 915.72461 C 511.10749 923.91878 524.91492 928.11065 538.73242 932.86133 C 584.12262 948.46719 632.19874 956.50858 680.02148 965.9043 C 714.48061 972.67441 749.05166 978.74248 783.79297 982.44922 C 811.02254 985.35435 838.71542 985.66397 866.56445 986.95898 C 892.59149 988.16866 944.62316 989.95728 944.88281 989.96484 C 945.1425 989.95592 997.17222 988.16866 1023.1992 986.95898 C 1051.0483 985.66397 1078.7411 985.35435 1105.9707 982.44922 C 1140.712 978.74248 1175.2831 972.67441 1209.7422 965.9043 C 1257.5649 956.50858 1305.6412 948.46719 1351.0312 932.86133 C 1364.8487 928.11065 1378.6562 923.91878 1388.5547 915.72461 C 1397.6005 908.23638 1404.5009 897.35874 1409.6797 886.00391 C 1414.5912 875.23414 1416.4207 862.60027 1418.293 849.75781 C 1420.9047 831.84467 1420.8613 813.29701 1421.252 794.54492 C 1422.0972 753.96126 1420.6815 713.23394 1419.748 672.39648 C 1418.3673 611.92967 1417.0672 551.50463 1413.707 491.25 C 1410.476 433.31585 1406.0411 375.4428 1400.123 317.74023 C 1396.7899 285.24205 1398.9784 252.3764 1388.3691 223.94531 C 1386.2523 218.27278 1382.0666 212.83449 1377.375 207.61328 C 1374.9619 204.92783 1372.4364 202.63703 1369.877 201.2832 C 1361.3328 196.76403 1350.6201 195.16907 1339.5762 192.74219 C 1317.5283 187.89722 1294.8537 185.15873 1272.0723 182.25 C 1237.043 177.7774 1201.8403 174.42435 1166.5781 171.70312 C 1093.0082 166.02565 945.31606 159.65524 944.88281 159.63672 z M 535.74805 238.95508 L 1348.7266 238.95508 L 1348.7266 793.53516 L 535.74805 793.53516 L 535.74805 244.625 L 535.74805 238.95508 z "
       transform="matrix(0.26458333,0,0,0.26458333,0,-3)"
       id="path1017" />
    <rect
       style="opacity:1;fill:url(#linearGradient986);fill-opacity:1;stroke:none;stroke-width:22.38946533;stroke-linecap:round;stroke-linejoin:round;stroke-miterlimit:4;stroke-dasharray:none;stroke-dashoffset:0;stroke-opacity:1;paint-order:normal"
       id="rect855"
       width="212.10017"
       height="143.73236"
       x="143.25023"
       y="61.723827"
       rx="0"
       ry="0" />
    <rect
       style="opacity:1;fill:#2e3436;fill-opacity:1;stroke:#204a87;stroke-width:1.80641687;stroke-linecap:round;stroke-linejoin:round;stroke-miterlimit:4;stroke-dasharray:none;stroke-dashoffset:0;stroke-opacity:1;paint-order:normal"
       id="rect866"
       width="54.979527"
       height="13.361198"
       x="222.51024"
       y="20.459486"
       rx="6.6805992"
       ry="6.6805992" />
    <path
       inkscape:connector-curvature="0"
       id="path872"
       d="m 441.77591,169.04475 a 3.1736274,3.1736274 0 0 0 -0.85116,0.11568 l -49.37637,12.59407 a 3.1736274,3.1736274 0 1 0 1.57011,6.14829 l 49.37637,-12.59408 a 3.1736274,3.1736274 0 0 0 -0.71895,-6.26398 z"
       style="color:#000000;font-style:normal;font-variant:normal;font-weight:normal;font-stretch:normal;font-size:medium;line-height:normal;font-family:sans-serif;font-variant-ligatures:normal;font-variant-position:normal;font-variant-caps:normal;font-variant-numeric:normal;font-variant-alternates:normal;font-feature-settings:normal;text-indent:0;text-align:start;text-decoration:none;text-decoration-line:none;text-decoration-style:solid;text-decoration-color:#000000;letter-spacing:normal;word-spacing:normal;text-transform:none;writing-mode:lr-tb;direction:ltr;text-orientation:mixed;dominant-baseline:auto;baseline-shift:baseline;text-anchor:start;white-space:normal;shape-padding:0;clip-rule:nonzero;display:inline;overflow:visible;visibility:visible;opacity:1;isolation:auto;mix-blend-mode:normal;color-interpolation:sRGB;color-interpolation-filters:linearRGB;solid-color:#000000;solid-opacity:1;vector-effect:none;fill:#2e3436;fill-opacity:1;fill-rule:nonzero;stroke:none;stroke-width:6.34662008;stroke-linecap:round;stroke-linejoin:miter;stroke-miterlimit:4;stroke-dasharray:none;stroke-dashoffset:0;stroke-opacity:1;color-rendering:auto;image-rendering:auto;shape-rendering:auto;text-rendering:auto;enable-background:accumulate" />
    <path
       style="color:#000000;font-style:normal;font-variant:normal;font-weight:normal;font-stretch:normal;font-size:medium;line-height:normal;font-family:sans-serif;font-variant-ligatures:normal;font-variant-position:normal;font-variant-caps:normal;font-variant-numeric:normal;font-variant-alternates:normal;font-feature-settings:normal;text-indent:0;text-align:start;text-decoration:none;text-decoration-line:none;text-decoration-style:solid;text-decoration-color:#000000;letter-spacing:normal;word-spacing:normal;text-transform:none;writing-mode:lr-tb;direction:ltr;text-orientation:mixed;dominant-baseline:auto;baseline-shift:baseline;text-anchor:start;white-space:normal;shape-padding:0;clip-rule:nonzero;display:inline;overflow:visible;visibility:visible;opacity:1;isolation:auto;mix-blend-mode:normal;color-interpolation:sRGB;color-interpolation-filters:linearRGB;solid-color:#000000;solid-opacity:1;vector-effect:none;fill:#2e3436;fill-opacity:1;fill-rule:nonzero;stroke:none;stroke-width:6.34662008;stroke-linecap:round;stroke-linejoin:miter;stroke-miterlimit:4;stroke-dasharray:none;stroke-dashoffset:0;stroke-opacity:1;color-rendering:auto;image-rendering:auto;shape-rendering:auto;text-rendering:auto;enable-background:accumulate"
       d="m 441.77591,180.23949 a 3.1736274,3.1736274 0 0 0 -0.85116,0.11567 l -49.37637,12.59408 a 3.1736274,3.1736274 0 1 0 1.57011,6.14829 l 49.37637,-12.59408 a 3.1736274,3.1736274 0 0 0 -0.71895,-6.26398 z"
       id="path874"
       inkscape:connector-curvature="0" />
    <path
       inkscape:connector-curvature="0"
       id="path876"
       d="m 441.77591,191.43423 a 3.1736274,3.1736274 0 0 0 -0.85116,0.11567 l -49.37637,12.59408 a 3.1736274,3.1736274 0 1 0 1.57011,6.14829 l 49.37637,-12.59408 a 3.1736274,3.1736274 0 0 0 -0.71895,-6.26398 z"
       style="color:#000000;font-style:normal;font-variant:normal;font-weight:normal;font-stretch:normal;font-size:medium;line-height:normal;font-family:sans-serif;font-variant-ligatures:normal;font-variant-position:normal;font-variant-caps:normal;font-variant-numeric:normal;font-variant-alternates:normal;font-feature-settings:normal;text-indent:0;text-align:start;text-decoration:none;text-decoration-line:none;text-decoration-style:solid;text-decoration-color:#000000;letter-spacing:normal;word-spacing:normal;text-transform:none;writing-mode:lr-tb;direction:ltr;text-orientation:mixed;dominant-baseline:auto;baseline-shift:baseline;text-anchor:start;white-space:normal;shape-padding:0;clip-rule:nonzero;display:inline;overflow:visible;visibility:visible;opacity:1;isolation:auto;mix-blend-mode:normal;color-interpolation:sRGB;color-interpolation-filters:linearRGB;solid-color:#000000;solid-opacity:1;vector-effect:none;fill:#2e3436;fill-opacity:1;fill-rule:nonzero;stroke:none;stroke-width:6.34662008;stroke-linecap:round;stroke-linejoin:miter;stroke-miterlimit:4;stroke-dasharray:none;stroke-dashoffset:0;stroke-opacity:1;color-rendering:auto;image-rendering:auto;shape-rendering:auto;text-rendering:auto;enable-background:accumulate" />
    <path
       style="color:#000000;font-style:normal;font-variant:normal;font-weight:normal;font-stretch:normal;font-size:medium;line-height:normal;font-family:sans-serif;font-variant-ligatures:normal;font-variant-position:normal;font-variant-caps:normal;font-variant-numeric:normal;font-variant-alternates:normal;font-feature-settings:normal;text-indent:0;text-align:start;text-decoration:none;text-decoration-line:none;text-decoration-style:solid;text-decoration-color:#000000;letter-spacing:normal;word-spacing:normal;text-transform:none;writing-mode:lr-tb;direction:ltr;text-orientation:mixed;dominant-baseline:auto;baseline-shift:baseline;text-anchor:start;white-space:normal;shape-padding:0;clip-rule:nonzero;display:inline;overflow:visible;visibility:visible;opacity:1;isolation:auto;mix-blend-mode:normal;color-interpolation:sRGB;color-interpolation-filters:linearRGB;solid-color:#000000;solid-opacity:1;vector-effect:none;fill:#2e3436;fill-opacity:1;fill-rule:nonzero;stroke:none;stroke-width:6.34662008;stroke-linecap:round;stroke-linejoin:miter;stroke-miterlimit:4;stroke-dasharray:none;stroke-dashoffset:0;stroke-opacity:1;color-rendering:auto;image-rendering:auto;shape-rendering:auto;text-rendering:auto;enable-background:accumulate"
       d="m 441.77591,202.62897 a 3.1736274,3.1736274 0 0 0 -0.85116,0.11567 l -49.37637,12.59408 a 3.1736274,3.1736274 0 1 0 1.57011,6.14829 l 49.37637,-12.59408 a 3.1736274,3.1736274 0 0 0 -0.71895,-6.26398 z"
       id="path878"
       inkscape:connector-curvature="0" />
    <path
       inkscape:connector-curvature="0"
       id="path880"
       d="m 441.77591,213.82371 a 3.1736274,3.1736274 0 0 0 -0.85116,0.11567 l -49.37637,12.59408 a 3.1736274,3.1736274 0 1 0 1.57011,6.14828 l 49.37637,-12.59407 a 3.1736274,3.1736274 0 0 0 -0.71895,-6.26398 z"
       style="color:#000000;font-style:normal;font-variant:normal;font-weight:normal;font-stretch:normal;font-size:medium;line-height:normal;font-family:sans-serif;font-variant-ligatures:normal;font-variant-position:normal;font-variant-caps:normal;font-variant-numeric:normal;font-variant-alternates:normal;font-feature-settings:normal;text-indent:0;text-align:start;text-decoration:none;text-decoration-line:none;text-decoration-style:solid;text-decoration-color:#000000;letter-spacing:normal;word-spacing:normal;text-transform:none;writing-mode:lr-tb;direction:ltr;text-orientation:mixed;dominant-baseline:auto;baseline-shift:baseline;text-anchor:start;white-space:normal;shape-padding:0;clip-rule:nonzero;display:inline;overflow:visible;visibility:visible;opacity:1;isolation:auto;mix-blend-mode:normal;color-interpolation:sRGB;color-interpolation-filters:linearRGB;solid-color:#000000;solid-opacity:1;vector-effect:none;fill:#2e3436;fill-opacity:1;fill-rule:nonzero;stroke:none;stroke-width:6.34662008;stroke-linecap:round;stroke-linejoin:miter;stroke-miterlimit:4;stroke-dasharray:none;stroke-dashoffset:0;stroke-opacity:1;color-rendering:auto;image-rendering:auto;shape-rendering:auto;text-rendering:auto;enable-background:accumulate" />
    <path
       style="color:#000000;font-style:normal;font-variant:normal;font-weight:normal;font-stretch:normal;font-size:medium;line-height:normal;font-family:sans-serif;font-variant-ligatures:normal;font-variant-position:normal;font-variant-caps:normal;font-variant-numeric:normal;font-variant-alternates:normal;font-feature-settings:normal;text-indent:0;text-align:start;text-decoration:none;text-decoration-line:none;text-decoration-style:solid;text-decoration-color:#000000;letter-spacing:normal;word-spacing:normal;text-transform:none;writing-mode:lr-tb;direction:ltr;text-orientation:mixed;dominant-baseline:auto;baseline-shift:baseline;text-anchor:start;white-space:normal;shape-padding:0;clip-rule:nonzero;display:inline;overflow:visible;visibility:visible;opacity:1;isolation:auto;mix-blend-mode:normal;color-interpolation:sRGB;color-interpolation-filters:linearRGB;solid-color:#000000;solid-opacity:1;vector-effect:none;fill:#204a87;fill-opacity:1;fill-rule:nonzero;stroke:none;stroke-width:16.92432022;stroke-linecap:round;stroke-linejoin:miter;stroke-miterlimit:4;stroke-dasharray:none;stroke-dashoffset:0;stroke-opacity:1;color-rendering:auto;image-rendering:auto;shape-rendering:auto;text-rendering:auto;enable-background:accumulate"
       d="m 65.515555,174.1843 a 8.4630064,8.4630064 0 0 0 -2.132066,16.72599 l 43.385101,9.99923 a 8.4634828,8.4634828 0 1 0 3.80136,-16.4946 l -43.385103,-9.99097 a 8.4630064,8.4630064 0 0 0 -1.669292,-0.23965 z"
       id="path882"
       inkscape:connector-curvature="0" />
    <path
       inkscape:connector-curvature="0"
       id="path886"
       d="m 65.515555,203.29062 a 8.4630064,8.4630064 0 0 0 -2.132066,16.72599 l 43.385101,9.99923 a 8.4634828,8.4634828 0 1 0 3.80136,-16.4946 l -43.385103,-9.99096 a 8.4630064,8.4630064 0 0 0 -1.669292,-0.23966 z"
       style="color:#000000;font-style:normal;font-variant:normal;font-weight:normal;font-stretch:normal;font-size:medium;line-height:normal;font-family:sans-serif;font-variant-ligatures:normal;font-variant-position:normal;font-variant-caps:normal;font-variant-numeric:normal;font-variant-alternates:normal;font-feature-settings:normal;text-indent:0;text-align:start;text-decoration:none;text-decoration-line:none;text-decoration-style:solid;text-decoration-color:#000000;letter-spacing:normal;word-spacing:normal;text-transform:none;writing-mode:lr-tb;direction:ltr;text-orientation:mixed;dominant-baseline:auto;baseline-shift:baseline;text-anchor:start;white-space:normal;shape-padding:0;clip-rule:nonzero;display:inline;overflow:visible;visibility:visible;opacity:1;isolation:auto;mix-blend-mode:normal;color-interpolation:sRGB;color-interpolation-filters:linearRGB;solid-color:#000000;solid-opacity:1;vector-effect:none;fill:#204a87;fill-opacity:1;fill-rule:nonzero;stroke:none;stroke-width:16.92432022;stroke-linecap:round;stroke-linejoin:miter;stroke-miterlimit:4;stroke-dasharray:none;stroke-dashoffset:0;stroke-opacity:1;color-rendering:auto;image-rendering:auto;shape-rendering:auto;text-rendering:auto;enable-background:accumulate" />
    <circle
       style="opacity:1;fill:#eeeeec;fill-opacity:1;stroke:#babdb6;stroke-width:1;stroke-linecap:round;stroke-linejoin:round;stroke-miterlimit:4;stroke-dasharray:none;stroke-dashoffset:0;stroke-opacity:1;paint-order:normal"
       id="path890"
       cx="108.58305"
       cy="192.53535"
       r="7.3465433" />
    <circle
       r="7.3465433"
       cy="221.76074"
       cx="108.58305"
       id="circle892"
       style="opacity:1;fill:#eeeeec;fill-opacity:1;stroke:#babdb6;stroke-width:1;stroke-linecap:round;stroke-linejoin:round;stroke-miterlimit:4;stroke-dasharray:none;stroke-dashoffset:0;stroke-opacity:1;paint-order:normal" />
    <circle
       style="opacity:1;fill:#d3d7cf;fill-opacity:1;stroke:#888a85;stroke-width:1;stroke-linecap:round;stroke-linejoin:round;stroke-miterlimit:4;stroke-dasharray:none;stroke-dashoffset:0;stroke-opacity:1;paint-order:normal"
       id="path894"
       cx="405.72678"
       cy="130.69139"
       r="16.992004" />
    <circle
       r="16.992004"
       cy="115.25542"
       cx="446.88928"
       id="circle896"
       style="opacity:1;fill:#d3d7cf;fill-opacity:1;stroke:#888a85;stroke-width:1;stroke-linecap:round;stroke-linejoin:round;stroke-miterlimit:4;stroke-dasharray:none;stroke-dashoffset:0;stroke-opacity:1;paint-order:normal" />
    <circle
       style="opacity:1;fill:#e9b96e;fill-opacity:1;stroke:none;stroke-width:16.92432022;stroke-linecap:round;stroke-linejoin:round;stroke-miterlimit:4;stroke-dasharray:none;stroke-dashoffset:0;stroke-opacity:1;paint-order:normal"
       id="path902"
       cx="403.78763"
       cy="57.625744"
       r="7.6963787" />
    <g
       transform="matrix(4.2310801,0,0,4.2310801,-200.58798,-502.22291)"
       id="g960">
      <path
         inkscape:connector-curvature="0"
         style="fill:none;stroke:#f57900;stroke-width:0.99999994px;stroke-linecap:butt;stroke-linejoin:miter;stroke-opacity:1"
         d="m 391.71094,166.91211 c -20.03686,-0.0283 -63.18685,0.11189 -87.78321,1.67969 -2.15167,0.13716 -4.36818,0.0751 -6.42773,0.71289 -1.93323,0.59867 -3.59769,1.85786 -5.35742,2.85742 -6.40867,3.64026 -12.31628,8.1722 -18.92774,11.42969 -7.33744,3.61518 -15.00381,6.64114 -22.85742,8.92773 -7.10602,2.06893 -14.51476,2.90045 -21.78515,4.28516 -4.5187,0.86062 -9.19481,1.08681 -13.57227,2.5 -2.38179,0.76892 -4.87705,1.59519 -6.78516,3.21484 -1.43503,1.2181 -2.47355,2.91238 -3.21484,4.64258 -1.3884,3.2406 -1.54229,6.8834 -2.14258,10.35742 -3.09024,17.88418 -5.50248,35.89074 -7.5,53.92969 -1.43303,12.94124 -2.44377,25.93024 -3.21484,38.92773 -0.58554,9.87005 -1.65427,19.77244 -1.07031,29.64258 0.3202,5.41211 0.99331,10.86426 2.5,16.07227 1.0817,3.739 2.39005,7.53855 4.64257,10.71289 2.43771,3.4353 5.80485,6.19924 9.28516,8.57226 3.60725,2.45958 7.67153,4.25206 11.78516,5.71485 8.29806,2.95083 17.20568,3.79889 25.71484,6.07031 6.84153,1.82627 13.67039,3.74306 20.35742,6.07227 3.6325,1.26527 7.17731,2.77463 10.71485,4.28515 3.9687,1.69467 7.76078,3.79962 11.78515,5.35742 3.61625,1.39986 7.31326,2.61047 11.07031,3.57032 4.9315,1.25994 9.97373,2.05521 15,2.85742 7.34913,1.17297 14.72939,2.22412 22.14454,2.85742 11.27848,0.96329 22.61267,1.11119 33.92773,1.42969 10.83015,0.305 32.5,0.46093 32.5,0.46093 0,0 21.66984,-0.15593 32.5,-0.46093 11.31504,-0.3185 22.64925,-0.4664 33.92773,-1.42969 7.41517,-0.6333 14.79543,-1.68445 22.14454,-2.85742 5.02628,-0.80221 10.06851,-1.59748 15,-2.85742 3.75707,-0.95985 7.45406,-2.17046 11.07031,-3.57032 4.02436,-1.5578 7.81646,-3.66275 11.78515,-5.35742 3.53757,-1.51052 7.08238,-3.01988 10.71485,-4.28515 6.68704,-2.32921 13.51591,-4.246 20.35742,-6.07227 8.50919,-2.27142 17.41678,-3.11948 25.71484,-6.07031 4.11364,-1.46279 8.17794,-3.25527 11.78516,-5.71485 3.4803,-2.37302 6.84744,-5.13696 9.28516,-8.57226 2.25252,-3.17434 3.56087,-6.97389 4.64257,-10.71289 1.50668,-5.20801 2.17988,-10.66016 2.5,-16.07227 0.58394,-9.87014 -0.48478,-19.77253 -1.07031,-29.64258 -0.7711,-12.99749 -1.7818,-25.98649 -3.21484,-38.92773 -1.99752,-18.03895 -4.40978,-36.04551 -7.5,-53.92969 -0.6003,-3.47402 -0.75417,-7.11682 -2.14258,-10.35742 -0.74128,-1.7302 -1.77979,-3.42448 -3.21484,-4.64258 -1.9081,-1.61965 -4.40338,-2.44592 -6.78516,-3.21484 -4.37749,-1.41319 -9.05358,-1.63938 -13.57227,-2.5 -7.27041,-1.38471 -14.67911,-2.21623 -21.78515,-4.28516 -7.8536,-2.28659 -15.51996,-5.31255 -22.85742,-8.92773 -6.61146,-3.25749 -12.51906,-7.78943 -18.92774,-11.42969 -1.75975,-0.99956 -3.42419,-2.25875 -5.35742,-2.85742 -2.05954,-0.6378 -4.27609,-0.57573 -6.42773,-0.71289 C 468.27712,166.5014 402.5,166.94922 402.5,166.94922 c 0,0 -4.11011,-0.0277 -10.78906,-0.0371 z"
         transform="scale(0.26458333)"
         id="path924" />
      <path
         inkscape:connector-curvature="0"
         style="fill:#e9b96e;stroke:none;stroke-width:0.99999994px;stroke-linecap:butt;stroke-linejoin:miter;stroke-opacity:1"
         d="m 402.5,192.87695 c 0,0 -35.02606,1.50894 -52.5,2.85743 -8.35007,0.64438 -16.69255,1.43929 -25,2.5 -5.37791,0.68665 -10.77704,1.33638 -16.07227,2.5 -2.53945,0.55803 -5.20165,0.92692 -7.5,2.14257 -0.8219,0.43473 -1.52112,1.09356 -2.14257,1.78516 -1.14757,1.27708 -2.25717,2.67852 -2.85743,4.28711 -2.64313,7.08314 -2.08412,14.97922 -2.85546,22.5 -1.40108,13.66067 -2.4502,27.35928 -3.21485,41.07031 -0.79591,14.27147 -1.10335,28.5675 -1.42969,42.85742 -0.22015,9.64108 -0.55631,19.28624 -0.35546,28.92774 0.0919,4.41023 0.0765,8.8498 0.71289,13.21484 0.44156,3.02869 0.87251,6.14493 2.14257,8.92969 1.27487,2.79526 2.99085,5.5409 5.35743,7.5 2.62597,2.17384 6.06332,3.17677 9.28711,4.28516 10.86843,3.73674 22.29302,5.64178 33.57031,7.85742 8.16197,1.60357 16.37151,3.04525 24.64258,3.92773 6.52034,0.69566 13.0923,0.76767 19.64257,1.07227 6.18838,0.28762 18.57227,0.71289 18.57227,0.71289 0,0 12.38389,-0.42527 18.57227,-0.71289 6.55029,-0.3046 13.12225,-0.37661 19.64257,-1.07227 8.27108,-0.88248 16.48062,-2.32416 24.64258,-3.92773 11.27728,-2.21564 22.70187,-4.12068 33.57031,-7.85742 3.22379,-1.10839 6.66114,-2.11132 9.28711,-4.28516 2.36659,-1.9591 4.08255,-4.70474 5.35743,-7.5 1.27007,-2.78476 1.70101,-5.901 2.14257,-8.92969 0.6364,-4.36504 0.62105,-8.80461 0.71289,-13.21484 0.20081,-9.6415 -0.13512,-19.28666 -0.35546,-28.92774 -0.32633,-14.28992 -0.6338,-28.58595 -1.42969,-42.85742 -0.76468,-13.71103 -1.81377,-27.40964 -3.21485,-41.07031 -0.77136,-7.52078 -0.21233,-15.41686 -2.85546,-22.5 -0.60027,-1.60859 -1.70989,-3.01003 -2.85743,-4.28711 -0.62146,-0.6916 -1.32068,-1.35043 -2.14257,-1.78516 -2.29834,-1.21565 -4.96058,-1.58454 -7.5,-2.14257 -5.29527,-1.16362 -10.69434,-1.81335 -16.07227,-2.5 -8.30744,-1.06071 -16.64993,-1.85562 -25,-2.5 -17.47397,-1.34849 -52.5,-2.85743 -52.5,-2.85743 z"
         id="path926"
         transform="scale(0.26458333)" />
      <rect
         style="opacity:1;fill:#75507b;fill-opacity:1;stroke:none;stroke-width:5.29166651;stroke-linecap:round;stroke-linejoin:round;stroke-miterlimit:4;stroke-dasharray:none;stroke-dashoffset:0;stroke-opacity:1;paint-order:normal"
         id="rect928"
         width="50.129086"
         height="33.970608"
         x="81.264877"
         y="56.701637"
         rx="0"
         ry="0" />
      <rect
         style="opacity:1;fill:#e9b96e;fill-opacity:1;stroke:none;stroke-width:5.29166651;stroke-linecap:round;stroke-linejoin:round;stroke-miterlimit:4;stroke-dasharray:none;stroke-dashoffset:0;stroke-opacity:1;paint-order:normal"
         id="rect930"
         width="14.386719"
         height="3.4962797"
         x="99.30143"
         y="46.779758"
         rx="1.7481399"
         ry="1.7481399" />
      <path
         inkscape:connector-curvature="0"
         id="path932"
         d="m 151.82031,82.066536 a 0.750075,0.750075 0 0 0 -0.20117,0.02734 l -11.66992,2.976562 a 0.750075,0.750075 0 1 0 0.37109,1.453125 l 11.66992,-2.976562 a 0.750075,0.750075 0 0 0 -0.16992,-1.480469 z"
         style="color:#000000;font-style:normal;font-variant:normal;font-weight:normal;font-stretch:normal;font-size:medium;line-height:normal;font-family:sans-serif;font-variant-ligatures:normal;font-variant-position:normal;font-variant-caps:normal;font-variant-numeric:normal;font-variant-alternates:normal;font-feature-settings:normal;text-indent:0;text-align:start;text-decoration:none;text-decoration-line:none;text-decoration-style:solid;text-decoration-color:#000000;letter-spacing:normal;word-spacing:normal;text-transform:none;writing-mode:lr-tb;direction:ltr;text-orientation:mixed;dominant-baseline:auto;baseline-shift:baseline;text-anchor:start;white-space:normal;shape-padding:0;clip-rule:nonzero;display:inline;overflow:visible;visibility:visible;opacity:1;isolation:auto;mix-blend-mode:normal;color-interpolation:sRGB;color-interpolation-filters:linearRGB;solid-color:#000000;solid-opacity:1;vector-effect:none;fill:#c4a000;fill-opacity:1;fill-rule:nonzero;stroke:none;stroke-width:1.5;stroke-linecap:round;stroke-linejoin:miter;stroke-miterlimit:4;stroke-dasharray:none;stroke-dashoffset:0;stroke-opacity:1;color-rendering:auto;image-rendering:auto;shape-rendering:auto;text-rendering:auto;enable-background:accumulate" />
      <path
         style="color:#000000;font-style:normal;font-variant:normal;font-weight:normal;font-stretch:normal;font-size:medium;line-height:normal;font-family:sans-serif;font-variant-ligatures:normal;font-variant-position:normal;font-variant-caps:normal;font-variant-numeric:normal;font-variant-alternates:normal;font-feature-settings:normal;text-indent:0;text-align:start;text-decoration:none;text-decoration-line:none;text-decoration-style:solid;text-decoration-color:#000000;letter-spacing:normal;word-spacing:normal;text-transform:none;writing-mode:lr-tb;direction:ltr;text-orientation:mixed;dominant-baseline:auto;baseline-shift:baseline;text-anchor:start;white-space:normal;shape-padding:0;clip-rule:nonzero;display:inline;overflow:visible;visibility:visible;opacity:1;isolation:auto;mix-blend-mode:normal;color-interpolation:sRGB;color-interpolation-filters:linearRGB;solid-color:#000000;solid-opacity:1;vector-effect:none;fill:#c4a000;fill-opacity:1;fill-rule:nonzero;stroke:none;stroke-width:1.5;stroke-linecap:round;stroke-linejoin:miter;stroke-miterlimit:4;stroke-dasharray:none;stroke-dashoffset:0;stroke-opacity:1;color-rendering:auto;image-rendering:auto;shape-rendering:auto;text-rendering:auto;enable-background:accumulate"
         d="m 151.82031,84.712371 a 0.750075,0.750075 0 0 0 -0.20117,0.02734 l -11.66992,2.976562 a 0.750075,0.750075 0 1 0 0.37109,1.453125 l 11.66992,-2.976562 a 0.750075,0.750075 0 0 0 -0.16992,-1.480469 z"
         id="path934"
         inkscape:connector-curvature="0" />
      <path
         inkscape:connector-curvature="0"
         id="path936"
         d="m 151.82031,87.358206 a 0.750075,0.750075 0 0 0 -0.20117,0.02734 l -11.66992,2.976562 a 0.750075,0.750075 0 1 0 0.37109,1.453125 l 11.66992,-2.976562 a 0.750075,0.750075 0 0 0 -0.16992,-1.480469 z"
         style="color:#000000;font-style:normal;font-variant:normal;font-weight:normal;font-stretch:normal;font-size:medium;line-height:normal;font-family:sans-serif;font-variant-ligatures:normal;font-variant-position:normal;font-variant-caps:normal;font-variant-numeric:normal;font-variant-alternates:normal;font-feature-settings:normal;text-indent:0;text-align:start;text-decoration:none;text-decoration-line:none;text-decoration-style:solid;text-decoration-color:#000000;letter-spacing:normal;word-spacing:normal;text-transform:none;writing-mode:lr-tb;direction:ltr;text-orientation:mixed;dominant-baseline:auto;baseline-shift:baseline;text-anchor:start;white-space:normal;shape-padding:0;clip-rule:nonzero;display:inline;overflow:visible;visibility:visible;opacity:1;isolation:auto;mix-blend-mode:normal;color-interpolation:sRGB;color-interpolation-filters:linearRGB;solid-color:#000000;solid-opacity:1;vector-effect:none;fill:#c4a000;fill-opacity:1;fill-rule:nonzero;stroke:none;stroke-width:1.5;stroke-linecap:round;stroke-linejoin:miter;stroke-miterlimit:4;stroke-dasharray:none;stroke-dashoffset:0;stroke-opacity:1;color-rendering:auto;image-rendering:auto;shape-rendering:auto;text-rendering:auto;enable-background:accumulate" />
      <path
         style="color:#000000;font-style:normal;font-variant:normal;font-weight:normal;font-stretch:normal;font-size:medium;line-height:normal;font-family:sans-serif;font-variant-ligatures:normal;font-variant-position:normal;font-variant-caps:normal;font-variant-numeric:normal;font-variant-alternates:normal;font-feature-settings:normal;text-indent:0;text-align:start;text-decoration:none;text-decoration-line:none;text-decoration-style:solid;text-decoration-color:#000000;letter-spacing:normal;word-spacing:normal;text-transform:none;writing-mode:lr-tb;direction:ltr;text-orientation:mixed;dominant-baseline:auto;baseline-shift:baseline;text-anchor:start;white-space:normal;shape-padding:0;clip-rule:nonzero;display:inline;overflow:visible;visibility:visible;opacity:1;isolation:auto;mix-blend-mode:normal;color-interpolation:sRGB;color-interpolation-filters:linearRGB;solid-color:#000000;solid-opacity:1;vector-effect:none;fill:#c4a000;fill-opacity:1;fill-rule:nonzero;stroke:none;stroke-width:1.5;stroke-linecap:round;stroke-linejoin:miter;stroke-miterlimit:4;stroke-dasharray:none;stroke-dashoffset:0;stroke-opacity:1;color-rendering:auto;image-rendering:auto;shape-rendering:auto;text-rendering:auto;enable-background:accumulate"
         d="m 151.82031,90.004041 a 0.750075,0.750075 0 0 0 -0.20117,0.02734 l -11.66992,2.976562 a 0.750075,0.750075 0 1 0 0.37109,1.453125 l 11.66992,-2.976562 a 0.750075,0.750075 0 0 0 -0.16992,-1.480469 z"
         id="path938"
         inkscape:connector-curvature="0" />
      <path
         inkscape:connector-curvature="0"
         id="path940"
         d="m 151.82031,92.649876 a 0.750075,0.750075 0 0 0 -0.20117,0.02734 l -11.66992,2.976562 a 0.750075,0.750075 0 1 0 0.37109,1.453125 l 11.66992,-2.976562 a 0.750075,0.750075 0 0 0 -0.16992,-1.480469 z"
         style="color:#000000;font-style:normal;font-variant:normal;font-weight:normal;font-stretch:normal;font-size:medium;line-height:normal;font-family:sans-serif;font-variant-ligatures:normal;font-variant-position:normal;font-variant-caps:normal;font-variant-numeric:normal;font-variant-alternates:normal;font-feature-settings:normal;text-indent:0;text-align:start;text-decoration:none;text-decoration-line:none;text-decoration-style:solid;text-decoration-color:#000000;letter-spacing:normal;word-spacing:normal;text-transform:none;writing-mode:lr-tb;direction:ltr;text-orientation:mixed;dominant-baseline:auto;baseline-shift:baseline;text-anchor:start;white-space:normal;shape-padding:0;clip-rule:nonzero;display:inline;overflow:visible;visibility:visible;opacity:1;isolation:auto;mix-blend-mode:normal;color-interpolation:sRGB;color-interpolation-filters:linearRGB;solid-color:#000000;solid-opacity:1;vector-effect:none;fill:#c4a000;fill-opacity:1;fill-rule:nonzero;stroke:none;stroke-width:1.5;stroke-linecap:round;stroke-linejoin:miter;stroke-miterlimit:4;stroke-dasharray:none;stroke-dashoffset:0;stroke-opacity:1;color-rendering:auto;image-rendering:auto;shape-rendering:auto;text-rendering:auto;enable-background:accumulate" />
      <path
         style="color:#000000;font-style:normal;font-variant:normal;font-weight:normal;font-stretch:normal;font-size:medium;line-height:normal;font-family:sans-serif;font-variant-ligatures:normal;font-variant-position:normal;font-variant-caps:normal;font-variant-numeric:normal;font-variant-alternates:normal;font-feature-settings:normal;text-indent:0;text-align:start;text-decoration:none;text-decoration-line:none;text-decoration-style:solid;text-decoration-color:#000000;letter-spacing:normal;word-spacing:normal;text-transform:none;writing-mode:lr-tb;direction:ltr;text-orientation:mixed;dominant-baseline:auto;baseline-shift:baseline;text-anchor:start;white-space:normal;shape-padding:0;clip-rule:nonzero;display:inline;overflow:visible;visibility:visible;opacity:1;isolation:auto;mix-blend-mode:normal;color-interpolation:sRGB;color-interpolation-filters:linearRGB;solid-color:#000000;solid-opacity:1;vector-effect:none;fill:#000000;fill-opacity:1;fill-rule:nonzero;stroke:none;stroke-width:4;stroke-linecap:round;stroke-linejoin:miter;stroke-miterlimit:4;stroke-dasharray:none;stroke-dashoffset:0;stroke-opacity:1;color-rendering:auto;image-rendering:auto;shape-rendering:auto;text-rendering:auto;enable-background:accumulate"
         d="m 62.892578,83.28125 a 2.0002,2.0002 0 0 0 -0.503906,3.953125 l 10.253906,2.363281 a 2.0003126,2.0003126 0 1 0 0.898438,-3.898437 L 63.287109,83.337891 a 2.0002,2.0002 0 0 0 -0.394531,-0.05664 z"
         id="path942"
         inkscape:connector-curvature="0" />
      <path
         inkscape:connector-curvature="0"
         id="path944"
         d="m 62.892578,90.160421 a 2.0002,2.0002 0 0 0 -0.503906,3.953125 l 10.253906,2.363281 A 2.0003126,2.0003126 0 1 0 73.541016,92.57839 L 63.287109,90.217062 a 2.0002,2.0002 0 0 0 -0.394531,-0.05664 z"
         style="color:#000000;font-style:normal;font-variant:normal;font-weight:normal;font-stretch:normal;font-size:medium;line-height:normal;font-family:sans-serif;font-variant-ligatures:normal;font-variant-position:normal;font-variant-caps:normal;font-variant-numeric:normal;font-variant-alternates:normal;font-feature-settings:normal;text-indent:0;text-align:start;text-decoration:none;text-decoration-line:none;text-decoration-style:solid;text-decoration-color:#000000;letter-spacing:normal;word-spacing:normal;text-transform:none;writing-mode:lr-tb;direction:ltr;text-orientation:mixed;dominant-baseline:auto;baseline-shift:baseline;text-anchor:start;white-space:normal;shape-padding:0;clip-rule:nonzero;display:inline;overflow:visible;visibility:visible;opacity:1;isolation:auto;mix-blend-mode:normal;color-interpolation:sRGB;color-interpolation-filters:linearRGB;solid-color:#000000;solid-opacity:1;vector-effect:none;fill:#000000;fill-opacity:1;fill-rule:nonzero;stroke:none;stroke-width:4;stroke-linecap:round;stroke-linejoin:miter;stroke-miterlimit:4;stroke-dasharray:none;stroke-dashoffset:0;stroke-opacity:1;color-rendering:auto;image-rendering:auto;shape-rendering:auto;text-rendering:auto;enable-background:accumulate" />
      <circle
         style="opacity:1;fill:#e9b96e;fill-opacity:1;stroke:none;stroke-width:4;stroke-linecap:round;stroke-linejoin:round;stroke-miterlimit:4;stroke-dasharray:none;stroke-dashoffset:0;stroke-opacity:1;paint-order:normal"
         id="circle946"
         cx="73.071419"
         cy="87.618454"
         r="1.7363281" />
      <circle
         r="1.7363281"
         cy="94.525764"
         cx="73.071419"
         id="circle948"
         style="opacity:1;fill:#e9b96e;fill-opacity:1;stroke:none;stroke-width:4;stroke-linecap:round;stroke-linejoin:round;stroke-miterlimit:4;stroke-dasharray:none;stroke-dashoffset:0;stroke-opacity:1;paint-order:normal" />
      <circle
         style="opacity:1;fill:#e9b96e;fill-opacity:1;stroke:none;stroke-width:4;stroke-linecap:round;stroke-linejoin:round;stroke-miterlimit:4;stroke-dasharray:none;stroke-dashoffset:0;stroke-opacity:1;paint-order:normal"
         id="circle950"
         cx="143.30023"
         cy="73.001862"
         r="4.0159969" />
      <circle
         r="4.0159969"
         cy="69.35363"
         cx="153.02884"
         id="circle952"
         style="opacity:1;fill:#e9b96e;fill-opacity:1;stroke:none;stroke-width:4;stroke-linecap:round;stroke-linejoin:round;stroke-miterlimit:4;stroke-dasharray:none;stroke-dashoffset:0;stroke-opacity:1;paint-order:normal" />
      <path
         style="fill:none;stroke:#000000;stroke-width:0.26458332px;stroke-linecap:butt;stroke-linejoin:miter;stroke-opacity:1"
         d="m 76.799897,47.002766 c 0,0 -0.819784,-0.327834 -1.253279,-0.375473 -1.510353,-0.16598 -3.03572,0.166377 -4.54647,0.3287 -2.082631,0.223769 -4.143776,0.616976 -6.220698,0.888671 -1.572341,0.205687 -3.16026,0.297978 -4.723987,0.561266 -0.503612,0.08479 -1.015829,0.155454 -1.496711,0.327406 -0.840382,0.300501 -1.670361,0.681951 -2.38538,1.216076 -0.671473,0.501596 -1.239644,1.144802 -1.730571,1.824114 -0.42491,0.587962 -0.762409,1.242986 -1.028986,1.91766 -0.183787,0.465142 -0.41221,0.950497 -0.385872,1.449938 0.009,0.16972 0.08666,0.335651 0.182224,0.476194 0.100912,0.148404 0.232687,0.291353 0.396875,0.363802 0.21421,0.09452 0.473545,0.123462 0.699619,0.06255 0.92025,-0.247947 1.447353,-1.302433 2.334433,-1.650897 1.859368,-0.730399 3.984245,-0.388311 5.940066,-0.795125 3.459516,-0.719584 7.112512,-1.174737 10.196332,-2.899876 1.588921,-0.888868 4.022405,-3.695006 4.022405,-3.695006 z"
         id="path954"
         inkscape:connector-curvature="0"
         sodipodi:nodetypes="caaaaaaaaaaaaaaac"
         inkscape:transform-center-x="41.581912"
         inkscape:transform-center-y="-3.505856" />
      <path
         inkscape:transform-center-y="-3.505856"
         inkscape:transform-center-x="-41.581913"
         sodipodi:nodetypes="caaaaaaaaaaaaaaac"
         inkscape:connector-curvature="0"
         id="path956"
         d="m 136.18968,47.002766 c 0,0 0.81979,-0.327834 1.25328,-0.375473 1.51035,-0.16598 3.03572,0.166377 4.54647,0.3287 2.08263,0.223769 4.14378,0.616976 6.2207,0.888671 1.57234,0.205687 3.16026,0.297978 4.72399,0.561266 0.50361,0.08479 1.01582,0.155454 1.49671,0.327406 0.84038,0.300501 1.67036,0.681951 2.38538,1.216076 0.67147,0.501596 1.23964,1.144802 1.73057,1.824114 0.42491,0.587962 0.76241,1.242986 1.02898,1.91766 0.18379,0.465142 0.41221,0.950497 0.38588,1.449938 -0.009,0.16972 -0.0867,0.335651 -0.18223,0.476194 -0.10091,0.148404 -0.23269,0.291353 -0.39687,0.363802 -0.21421,0.09452 -0.47355,0.123462 -0.69962,0.06255 -0.92025,-0.247947 -1.44736,-1.302433 -2.33444,-1.650897 -1.85936,-0.730399 -3.98424,-0.388311 -5.94006,-0.795125 -3.45952,-0.719584 -7.11251,-1.174737 -10.19633,-2.899876 -1.58892,-0.888868 -4.02241,-3.695006 -4.02241,-3.695006 z"
         style="fill:none;stroke:#000000;stroke-width:0.26458332px;stroke-linecap:butt;stroke-linejoin:miter;stroke-opacity:1" />
      <circle
         style="opacity:1;fill:#e9b96e;fill-opacity:1;stroke:none;stroke-width:4;stroke-linecap:round;stroke-linejoin:round;stroke-miterlimit:4;stroke-dasharray:none;stroke-dashoffset:0;stroke-opacity:1;paint-order:normal"
         id="circle958"
         cx="142.84192"
         cy="55.73307"
         r="1.8190104" />
    </g>
    <path
       style="color:#000000;font-style:normal;font-variant:normal;font-weight:normal;font-stretch:normal;font-size:14.85584259px;line-height:1.25;font-family:sans-serif;font-variant-ligatures:normal;font-variant-position:normal;font-variant-caps:normal;font-variant-numeric:normal;font-variant-alternates:normal;font-feature-settings:normal;text-indent:0;text-align:start;text-decoration:none;text-decoration-line:none;text-decoration-style:solid;text-decoration-color:#000000;letter-spacing:5.10669613px;word-spacing:0px;text-transform:none;writing-mode:lr-tb;direction:ltr;text-orientation:mixed;dominant-baseline:auto;baseline-shift:baseline;text-anchor:start;white-space:normal;shape-padding:0;clip-rule:nonzero;display:inline;overflow:visible;visibility:visible;opacity:1;isolation:auto;mix-blend-mode:normal;color-interpolation:sRGB;color-interpolation-filters:linearRGB;solid-color:#000000;solid-opacity:1;vector-effect:none;fill:#ce5c00;fill-opacity:1;fill-rule:nonzero;stroke:none;stroke-width:1.40370166;stroke-linecap:butt;stroke-linejoin:round;stroke-miterlimit:4;stroke-dasharray:none;stroke-dashoffset:0;stroke-opacity:1;color-rendering:auto;image-rendering:auto;shape-rendering:auto;text-rendering:auto;enable-background:accumulate"
       d="m 208.92578,222.84375 c -1.68001,0 -3.13641,0.59896 -4.17969,1.76367 -1.03987,1.16156 -1.54297,2.72245 -1.54297,4.5586 0,1.83614 0.5031,3.39899 1.54297,4.56054 a 0.70192102,0.70192102 0 0 0 0.002,0 c 1.04368,1.15965 2.49846,1.75586 4.17773,1.75586 1.67493,0 3.1254,-0.59564 4.16406,-1.75586 a 0.70192102,0.70192102 0 0 0 0,-0.002 c 1.03847,-1.16552 1.54297,-2.72693 1.54297,-4.55859 0,-1.83549 -0.50386,-3.39522 -1.54297,-4.55664 -1.03825,-1.16528 -2.48838,-1.76563 -4.16406,-1.76563 z m -20.67383,0.19531 a 0.70192102,0.70192102 0 0 0 -0.70117,0.70117 v 10.83008 a 0.70192102,0.70192102 0 0 0 0.70117,0.70313 h 1.46485 a 0.70192102,0.70192102 0 0 0 0.70117,-0.70313 v -4.45508 h 3.92187 v 4.45508 a 0.70192102,0.70192102 0 0 0 0.70118,0.70313 h 1.46484 a 0.70192102,0.70192102 0 0 0 0.70312,-0.70313 v -10.83008 a 0.70192102,0.70192102 0 0 0 -0.70312,-0.70117 h -1.46484 a 0.70192102,0.70192102 0 0 0 -0.70118,0.70117 v 3.73829 h -3.92187 v -3.73829 a 0.70192102,0.70192102 0 0 0 -0.70117,-0.70117 z m 33.07813,0 a 0.70192102,0.70192102 0 0 0 -0.70313,0.70117 v 10.83008 a 0.70192102,0.70192102 0 0 0 0.70313,0.70313 h 1.42187 a 0.70192102,0.70192102 0 0 0 0.70117,-0.70313 v -5.64648 l 1.4336,3.8125 a 0.70192102,0.70192102 0 0 0 0.65625,0.45508 h 1.47265 a 0.70192102,0.70192102 0 0 0 0.65821,-0.45508 l 1.43359,-3.8125 v 5.64648 a 0.70192102,0.70192102 0 0 0 0.70117,0.70313 h 1.42969 a 0.70192102,0.70192102 0 0 0 0.70117,-0.70313 v -10.83008 a 0.70192102,0.70192102 0 0 0 -0.70117,-0.70117 h -2.18359 a 0.70192102,0.70192102 0 0 0 -0.65625,0.45508 l -2.1211,5.62305 -2.10742,-5.62305 a 0.70192102,0.70192102 0 0 0 -0.6582,-0.45508 z m 17.92969,0 a 0.70192102,0.70192102 0 0 0 -0.70118,0.70117 v 10.83008 a 0.70192102,0.70192102 0 0 0 0.70118,0.70313 h 6.97851 a 0.70192102,0.70192102 0 0 0 0.70313,-0.70313 v -1.23242 a 0.70192102,0.70192102 0 0 0 -0.70313,-0.70117 h -4.81055 v -2.52149 h 4.45508 a 0.70192102,0.70192102 0 0 0 0.70313,-0.70117 v -1.23437 a 0.70192102,0.70192102 0 0 0 -0.70313,-0.70117 h -4.45508 v -1.80274 h 4.67969 a 0.70192102,0.70192102 0 0 0 0.70313,-0.70117 v -1.23438 a 0.70192102,0.70192102 0 0 0 -0.70313,-0.70117 z m 14.50781,0 a 0.70192102,0.70192102 0 0 0 -0.70117,0.70117 v 10.83008 a 0.70192102,0.70192102 0 0 0 0.70117,0.70313 h 3.88867 c 1.3154,0 2.424,-0.28643 3.24609,-0.94532 0.82115,-0.65812 1.25,-1.66279 1.25,-2.78906 0,-0.86125 -0.25059,-1.65598 -0.75976,-2.27734 -0.21319,-0.26472 -0.59227,-0.32732 -0.87696,-0.51367 0.1752,-0.12931 0.43444,-0.14249 0.57032,-0.31446 0.42882,-0.54273 0.61719,-1.24381 0.61718,-2.01562 0,-1.02117 -0.41189,-1.94595 -1.18164,-2.53711 -0.77012,-0.59146 -1.79545,-0.8418 -3.00976,-0.8418 z m 15.29101,0 a 0.70192102,0.70192102 0 0 0 -0.70117,0.70117 v 10.83008 a 0.70192102,0.70192102 0 0 0 0.70117,0.70313 h 1.4668 a 0.70192102,0.70192102 0 0 0 0.70117,-0.70313 v -3.875 h 0.89453 c 0.48478,0 0.78777,0.10082 0.96485,0.22657 a 0.70192102,0.70192102 0 0 0 0.004,0.002 c 0.15807,0.11064 0.48399,0.50585 0.81641,1.17969 a 0.70192102,0.70192102 0 0 0 0.002,0.002 l 1.38477,2.7793 a 0.70192102,0.70192102 0 0 0 0.62891,0.38867 h 1.57421 a 0.70192102,0.70192102 0 0 0 0.62696,-1.01758 l -1.48438,-2.95508 -0.002,-0.004 c -0.31574,-0.64106 -0.63779,-1.16376 -0.99219,-1.57618 l -0.002,-0.002 c -0.0837,-0.0987 -0.20139,-0.12601 -0.29102,-0.21289 0.26198,-0.19094 0.60905,-0.28125 0.79492,-0.54688 1.1e-4,-1.4e-4 0.002,1.5e-4 0.002,0 0.41436,-0.58565 0.60547,-1.30979 0.60547,-2.0996 0,-1.18103 -0.37518,-2.20869 -1.16211,-2.87696 -0.78809,-0.66924 -1.88884,-0.94336 -3.22461,-0.94336 z m 15.4375,0 a 0.70192102,0.70192102 0 0 0 -0.70312,0.70117 v 10.83008 a 0.70192102,0.70192102 0 0 0 0.70312,0.70313 h 6.97852 a 0.70192102,0.70192102 0 0 0 0.70117,-0.70313 v -1.23242 a 0.70192102,0.70192102 0 0 0 -0.70117,-0.70117 h -4.8125 v -2.52149 h 4.45703 a 0.70192102,0.70192102 0 0 0 0.70117,-0.70117 v -1.23437 a 0.70192102,0.70192102 0 0 0 -0.70117,-0.70117 h -4.45703 v -1.80274 h 4.68164 a 0.70192102,0.70192102 0 0 0 0.70117,-0.70117 v -1.23438 a 0.70192102,0.70192102 0 0 0 -0.70117,-0.70117 z m 13.54297,0 a 0.70192102,0.70192102 0 0 0 -0.68164,0.87305 l 2.71289,10.83008 a 0.70192102,0.70192102 0 0 0 0.68164,0.53125 h 1.8418 a 0.70192102,0.70192102 0 0 0 0.68164,-0.53516 l 1.62109,-6.61133 1.60743,6.60938 a 0.70192102,0.70192102 0 0 0 0.68164,0.53711 h 1.84179 a 0.70192102,0.70192102 0 0 0 0.68164,-0.53125 l 2.72071,-10.83008 a 0.70192102,0.70192102 0 0 0 -0.68164,-0.87305 h -1.48633 a 0.70192102,0.70192102 0 0 0 -0.68164,0.53321 l -1.58985,6.41015 -1.5957,-6.41015 a 0.70192102,0.70192102 0 0 0 -0.68164,-0.53321 h -1.64648 a 0.70192102,0.70192102 0 0 0 -0.68164,0.53321 l -1.58985,6.41406 -1.5957,-6.41406 a 0.70192102,0.70192102 0 0 0 -0.68164,-0.53321 z m -109.08594,1.4043 h 0.0625 v 3.73633 a 0.70192102,0.70192102 0 0 0 0.36524,0.61719 0.70192102,0.70192102 0 0 0 -0.36524,0.61718 v 4.45508 h -0.0625 z m 6.79102,0 h 0.0606 v 9.42578 h -0.0606 v -4.45508 a 0.70192102,0.70192102 0 0 0 -0.36719,-0.61718 0.70192102,0.70192102 0 0 0 0.36719,-0.61719 z m 26.28711,0 h 0.38672 a 0.70192102,0.70192102 0 0 0 -0.36914,0.61719 v 8.80859 h -0.0176 z m 8.10937,0 h 0.39649 v 9.42578 h -0.0254 v -8.80859 a 0.70192102,0.70192102 0 0 0 -0.3711,-0.61719 z m 9.82227,0 h 0.30469 a 0.70192102,0.70192102 0 0 0 -0.24414,0.53125 v 3.20508 a 0.70192102,0.70192102 0 0 0 0.36718,0.61719 0.70192102,0.70192102 0 0 0 -0.36718,0.61718 v 3.92383 a 0.70192102,0.70192102 0 0 0 0.24414,0.53125 h -0.30469 z m 14.50781,0 h 0.27344 a 0.70192102,0.70192102 0 0 0 -0.21289,0.50195 v 3.26367 a 0.70192102,0.70192102 0 0 0 0.33203,0.59571 0.70192102,0.70192102 0 0 0 -0.33203,0.59375 v 3.96875 a 0.70192102,0.70192102 0 0 0 0.21094,0.50195 h -0.27149 z m 15.29102,0 h 0.27344 a 0.70192102,0.70192102 0 0 0 -0.21289,0.50195 v 3.84375 a 0.70192102,0.70192102 0 0 0 0.34179,0.60156 0.70192102,0.70192102 0 0 0 -0.34179,0.60352 v 3.875 h -0.0605 z m 15.43555,0 h 0.30468 a 0.70192102,0.70192102 0 0 0 -0.24218,0.53125 v 3.20508 a 0.70192102,0.70192102 0 0 0 0.36523,0.61719 0.70192102,0.70192102 0 0 0 -0.36523,0.61718 v 3.92383 a 0.70192102,0.70192102 0 0 0 0.24414,0.53125 h -0.30664 z m 13.74023,0 h 0.0312 l 2.14648,8.62109 a 0.70192102,0.70192102 0 0 0 1.01563,0.44532 l -0.0879,0.35937 h -0.74414 z m 5.67773,0 h 0.54883 l 0.0215,0.0859 a 0.70192102,0.70192102 0 0 0 -0.59375,0.01 z m 6.19532,0 h 0.0391 l -2.36914,9.42578 h -0.74414 l -0.0879,-0.36328 a 0.70192102,0.70192102 0 0 0 1.02344,-0.44141 z m -51.38477,0.35156 0.004,0.002 c -9.6e-4,-7.5e-4 -0.003,7.4e-4 -0.004,0 -1.3e-4,-1.1e-4 1.3e-4,-0.002 0,-0.002 z m 15,0.10938 0.008,0.006 c -0.001,-0.001 -0.004,-6e-4 -0.006,-0.002 -0.001,-9.7e-4 -8.4e-4,-0.003 -0.002,-0.004 z m -14.92969,0.0469 c 0.0378,0.025 0.13533,0.0164 0.16993,0.043 0.43922,0.33733 0.63281,0.7331 0.63281,1.42383 0,0.55322 -0.12234,0.9058 -0.3125,1.14648 -0.0534,0.0675 -0.19196,0.0783 -0.25977,0.13282 0.2099,-0.36082 0.50391,-0.6805 0.50391,-1.11915 0,-0.63649 -0.28941,-1.21244 -0.73438,-1.62695 z m 14.96485,0.043 c 0.0473,0.0328 0.18127,0.0235 0.22265,0.0586 0.43171,0.36661 0.66602,0.89856 0.66602,1.80665 0,0.57235 -0.12538,0.9778 -0.34766,1.29101 a 0.70192102,0.70192102 0 0 0 -0.004,0.006 c -0.0889,0.1272 -0.28543,0.17347 -0.40821,0.26953 0.33141,-0.45284 0.61914,-0.95446 0.61914,-1.5664 0,-0.73229 -0.26217,-1.39442 -0.74804,-1.86524 z m -65.53516,0.44336 c 0.8895,0 1.47171,0.27863 1.9707,0.91797 a 0.70192102,0.70192102 0 0 0 0.002,0.002 c 0.50254,0.6389 0.78515,1.54668 0.78515,2.8086 0,1.2567 -0.28218,2.16329 -0.78515,2.80273 a 0.70192102,0.70192102 0 0 0 -0.002,0.002 c -0.49899,0.63934 -1.0812,0.91993 -1.9707,0.91992 -0.88949,0 -1.48129,-0.28177 -1.99023,-0.92382 -0.50203,-0.63933 -0.78321,-1.54534 -0.78321,-2.80078 0,-1.26066 0.2816,-2.16785 0.78321,-2.80664 l 0.002,-0.002 c 0.50851,-0.64035 1.09989,-0.91992 1.98828,-0.91992 z m 3.09375,0.0879 c 0.007,0.008 0.0165,0.01 0.0234,0.0176 0.77842,0.86951 1.18555,2.03539 1.18555,3.62305 0,1.58171 -0.40646,2.74796 -1.18555,3.62304 -0.008,0.009 -0.0194,0.0108 -0.0273,0.0195 0.73181,-0.94387 1.07227,-2.1841 1.07227,-3.64257 0,-1.4594 -0.33978,-2.69701 -1.06836,-3.64063 z m -6.20312,0.002 c -0.72785,0.94346 -1.06836,2.17998 -1.06836,3.63868 0,1.45952 0.34131,2.7004 1.07422,3.64453 -0.009,-0.009 -0.0207,-0.012 -0.0293,-0.0215 -0.77843,-0.86951 -1.18555,-2.03539 -1.18555,-3.62304 0,-1.58766 0.40712,-2.75354 1.18555,-3.62305 0.007,-0.007 0.0168,-0.008 0.0234,-0.0156 z m 50.11914,0.11914 h 1.46679 c 0.62719,0 1.00179,0.13204 1.16602,0.25977 a 0.70192102,0.70192102 0 0 0 0.002,0.002 c 0.17214,0.13205 0.25586,0.27461 0.25586,0.66992 0,0.40009 -0.0846,0.54338 -0.2539,0.67383 -2.7e-4,2e-4 -0.002,-2e-4 -0.002,0 -0.16425,0.12497 -0.5402,0.25586 -1.16797,0.25586 h -1.46679 z m 15.29101,0 h 1.14063 c 0.59868,0 0.93738,0.13483 1.125,0.30469 a 0.70192102,0.70192102 0 0 0 0.008,0.006 c 0.18981,0.16703 0.30469,0.40278 0.30469,0.90235 0,0.49956 -0.11596,0.74562 -0.3125,0.92382 -0.18762,0.16987 -0.52632,0.30469 -1.125,0.30469 h -1.14063 z m -12.74609,2.97461 a 0.70192102,0.70192102 0 0 0 0.0351,0.35352 c -0.22184,-0.0495 -0.3925,-0.17537 -0.63867,-0.18945 0.22289,-0.0213 0.40395,-0.10923 0.60352,-0.16407 z m 15.14453,0.46485 a 0.70192102,0.70192102 0 0 0 -0.10547,0.58789 c -0.2815,-0.13649 -0.59488,-0.21334 -0.92773,-0.25391 0.39649,-0.0212 0.7003,-0.2003 1.0332,-0.33398 z m -13.84375,0.25976 0.008,0.008 c -9.1e-4,-7.9e-4 -0.003,7.8e-4 -0.004,0 -0.002,-0.002 -0.002,-0.006 -0.004,-0.008 z m -3.8457,0.75586 h 1.64843 c 0.69209,0 1.09713,0.14986 1.29102,0.31641 a 0.70192102,0.70192102 0 0 0 0.008,0.006 c 0.19465,0.16262 0.32031,0.41007 0.32031,0.95508 0,0.53825 -0.12593,0.79418 -0.32812,0.96875 -0.19389,0.16654 -0.59893,0.3164 -1.29102,0.3164 h -1.64843 z m 18.53515,0.44727 c 0.0389,0.0399 0.0628,0.032 0.10352,0.0801 a 0.70192102,0.70192102 0 0 0 0.004,0.004 c 0.0679,0.0789 0.15215,0.25734 0.22461,0.35938 -0.10107,-0.17097 -0.22363,-0.30042 -0.33203,-0.44336 z M 260.49805,230.75 c 0.0953,0.24833 0.25,0.44453 0.25,0.78906 0,0.31957 -0.21122,0.43606 -0.28516,0.66992 0.0703,-0.26772 0.14453,-0.53664 0.14453,-0.83007 0,-0.22302 -0.0693,-0.41958 -0.10937,-0.62891 z m -33.95703,1.00977 -0.01,0.0273 h -0.0703 a 0.70192102,0.70192102 0 0 0 0.0801,-0.0273 z m -0.52149,0.004 a 0.70192102,0.70192102 0 0 0 0.0723,0.0234 h -0.0625 z m 34.18555,1.04688 c -0.0908,0.11372 -0.0566,0.32322 -0.17969,0.42187 -0.0285,0.0228 -0.10642,0.0153 -0.13672,0.0371 0.13137,-0.13418 0.22379,-0.29591 0.31641,-0.45898 z m 15.89453,0.54492 0.25781,0.51367 h -0.002 z"
       id="text990"
       inkscape:connector-curvature="0" />
    <g
       aria-label="HOMEBREW"
       style="font-style:normal;font-weight:normal;font-size:14.85584259px;line-height:1.25;font-family:sans-serif;letter-spacing:5.10669613px;word-spacing:0px;fill:#ffffff;fill-opacity:1;stroke:#ffffff;stroke-width:1.40370166;stroke-linejoin:round;stroke-miterlimit:4;stroke-dasharray:none"
       id="text1265">
      <path
         d="m 188.2518,223.74096 h 1.46527 v 4.43934 h 5.32431 v -4.43934 h 1.46528 v 10.82996 h -1.46528 v -5.15747 h -5.32431 v 5.15747 h -1.46527 z"
         style="fill:#ffffff;stroke:#ffffff;stroke-width:1.40370166;stroke-linejoin:round;stroke-miterlimit:4;stroke-dasharray:none"
         id="path1267" />
      <path
         d="m 208.92521,224.73473 q -1.59584,0 -2.53884,1.18963 -0.93574,1.18963 -0.93574,3.24246 0,2.04558 0.93574,3.23521 0.943,1.18963 2.53884,1.18963 1.59584,0 2.52433,-1.18963 0.93575,-1.18963 0.93575,-3.23521 0,-2.05283 -0.93575,-3.24246 -0.92849,-1.18963 -2.52433,-1.18963 z m 0,-1.18963 q 2.2777,0 3.64142,1.53056 1.36372,1.5233 1.36372,4.09116 0,2.5606 -1.36372,4.09116 -1.36372,1.5233 -3.64142,1.5233 -2.28495,0 -3.65593,-1.5233 -1.36372,-1.5233 -1.36372,-4.09116 0,-2.56786 1.36372,-4.09116 1.37098,-1.53056 3.65593,-1.53056 z"
         style="fill:#ffffff;stroke:#ffffff;stroke-width:1.40370166;stroke-linejoin:round;stroke-miterlimit:4;stroke-dasharray:none"
         id="path1269" />
      <path
         d="m 221.32926,223.74096 h 2.1834 l 2.76371,7.36989 2.77822,-7.36989 h 2.1834 v 10.82996 h -1.42901 v -9.50977 l -2.79272,7.42792 h -1.47253 l -2.79272,-7.42792 v 9.50977 h -1.42175 z"
         style="fill:#ffffff;stroke:#ffffff;stroke-width:1.40370166;stroke-linejoin:round;stroke-miterlimit:4;stroke-dasharray:none"
         id="path1271" />
      <path
         d="m 239.26073,223.74096 h 6.84761 v 1.23315 H 240.726 v 3.20619 h 5.15747 v 1.23315 H 240.726 v 3.92432 h 5.51291 v 1.23315 h -6.97818 z"
         style="fill:#ffffff;stroke:#ffffff;stroke-width:1.40370166;stroke-linejoin:round;stroke-miterlimit:4;stroke-dasharray:none"
         id="path1273" />
      <path
         d="m 255.23366,229.39894 v 3.96785 h 2.35024 q 1.18237,0 1.74817,-0.48601 0.57305,-0.49326 0.57305,-1.50154 0,-1.01554 -0.57305,-1.49429 -0.5658,-0.48601 -1.74817,-0.48601 z m 0,-4.45385 v 3.26422 h 2.16889 q 1.07357,0 1.59584,-0.39896 0.52953,-0.40621 0.52953,-1.23315 0,-0.81968 -0.52953,-1.22589 -0.52227,-0.40622 -1.59584,-0.40622 z m -1.46528,-1.20413 h 3.74298 q 1.67563,0 2.58236,0.69636 0.90673,0.69637 0.90673,1.9803 0,0.99377 -0.46424,1.58133 -0.46425,0.58756 -1.36372,0.73264 1.08082,0.23212 1.67563,0.97201 0.60207,0.73264 0.60207,1.83522 0,1.45077 -0.98652,2.24144 -0.98652,0.79066 -2.80723,0.79066 h -3.88806 z"
         style="fill:#ffffff;stroke:#ffffff;stroke-width:1.40370166;stroke-linejoin:round;stroke-miterlimit:4;stroke-dasharray:none"
         id="path1275" />
      <path
         d="m 274.19517,229.49324 q 0.4715,0.15959 0.91398,0.68186 0.44974,0.52228 0.89948,1.43626 l 1.48703,2.95956 h -1.57408 l -1.38548,-2.77821 q -0.53678,-1.08808 -1.04455,-1.44352 -0.50051,-0.35543 -1.37097,-0.35543 h -1.59585 v 4.57716 h -1.46527 v -10.82996 h 3.30775 q 1.85698,0 2.77096,0.77616 0.91398,0.77616 0.91398,2.34298 0,1.02279 -0.47875,1.6974 -0.4715,0.6746 -1.37823,0.93574 z m -3.67044,-4.54815 v 3.84453 h 1.84248 q 1.05906,0 1.59584,-0.48601 0.54404,-0.49326 0.54404,-1.44351 0,-0.95025 -0.54404,-1.429 -0.53678,-0.48601 -1.59584,-0.48601 z"
         style="fill:#ffffff;stroke:#ffffff;stroke-width:1.40370166;stroke-linejoin:round;stroke-miterlimit:4;stroke-dasharray:none"
         id="path1277" />
      <path
         d="m 284.49561,223.74096 h 6.84761 v 1.23315 h -5.38234 v 3.20619 h 5.15748 v 1.23315 h -5.15748 v 3.92432 h 5.51291 v 1.23315 h -6.97818 z"
         style="fill:#ffffff;stroke:#ffffff;stroke-width:1.40370166;stroke-linejoin:round;stroke-miterlimit:4;stroke-dasharray:none"
         id="path1279" />
      <path
         d="m 298.03851,223.74096 h 1.47978 l 2.2777,9.15433 2.27045,-9.15433 h 1.64662 l 2.2777,9.15433 2.27045,-9.15433 h 1.48704 l -2.72019,10.82996 h -1.84247 l -2.28496,-9.40096 -2.30671,9.40096 h -1.84248 z"
         style="fill:#ffffff;stroke:#ffffff;stroke-width:1.40370166;stroke-linejoin:round;stroke-miterlimit:4;stroke-dasharray:none"
         id="path1281" />
    </g>
    <g
       id="g1337">
      <path
         d="m 190.42678,126.89576 h 3.44787 l -0.99406,5.09569 h 5.08673 l 0.98511,-5.09569 h 3.44787 l -2.60605,13.37058 h -3.44788 l 1.10153,-5.66884 h -5.07777 l -1.10153,5.66884 h -3.44787 z"
         style="font-style:italic;font-variant:normal;font-weight:bold;font-stretch:normal;font-size:medium;line-height:1.25;font-family:sans-serif;-inkscape-font-specification:'sans-serif Bold Italic';letter-spacing:0px;word-spacing:0px;fill:url(#linearGradient1303);fill-opacity:1;stroke:none;stroke-width:1.73299742;stroke-linejoin:round;stroke-miterlimit:4;stroke-dasharray:none"
         id="path1286"
         inkscape:connector-curvature="0" />
      <path
         d="m 214.08724,132.37654 q 0,-1.57617 -0.71644,-2.40008 -0.70748,-0.82391 -2.05977,-0.82391 -1.7911,0 -3.00905,1.61199 -1.20899,1.60304 -1.20899,4.02103 0,1.54035 0.70748,2.39112 0.70749,0.85077 1.97022,0.85077 1.02988,0 1.82692,-0.42986 0.806,-0.43882 1.37019,-1.28959 0.53733,-0.81496 0.82391,-1.83588 0.29553,-1.02093 0.29553,-2.09559 z m -2.2747,-5.72258 q 2.66874,0 4.28969,1.48662 1.62991,1.47766 1.62991,3.86878 0,1.6299 -0.50151,3.0807 -0.49256,1.45079 -1.44184,2.60605 -1.16422,1.42393 -2.7583,2.13141 -1.58512,0.69853 -3.6628,0.69853 -2.65979,0 -4.28074,-1.47766 -1.62095,-1.47766 -1.62095,-3.87773 0,-1.63886 0.49256,-3.08966 0.49255,-1.45079 1.45079,-2.61501 1.14631,-1.41497 2.73143,-2.1135 1.59408,-0.69853 3.67176,-0.69853 z"
         style="font-style:italic;font-variant:normal;font-weight:bold;font-stretch:normal;font-size:medium;line-height:1.25;font-family:sans-serif;-inkscape-font-specification:'sans-serif Bold Italic';letter-spacing:0px;word-spacing:0px;fill:url(#linearGradient1305);fill-opacity:1;stroke:none;stroke-width:1.73299742;stroke-linejoin:round;stroke-miterlimit:4;stroke-dasharray:none"
         id="path1288"
         inkscape:connector-curvature="0" />
      <path
         d="m 221.37703,126.89576 h 4.23596 l 1.71945,7.10172 4.51358,-7.10172 h 4.40611 l -2.60605,13.37058 h -3.26876 l 1.90752,-9.86897 -4.63895,7.29874 h -1.85379 l -1.84484,-7.29874 -1.90752,9.86897 h -3.26877 z"
         style="font-style:italic;font-variant:normal;font-weight:bold;font-stretch:normal;font-size:medium;line-height:1.25;font-family:sans-serif;-inkscape-font-specification:'sans-serif Bold Italic';letter-spacing:0px;word-spacing:0px;fill:url(#linearGradient1307);fill-opacity:1;stroke:none;stroke-width:1.73299742;stroke-linejoin:round;stroke-miterlimit:4;stroke-dasharray:none"
         id="path1290"
         inkscape:connector-curvature="0" />
      <path
         d="m 239.64627,126.89576 h 9.29583 l -0.51047,2.60606 h -5.84795 l -0.4836,2.48963 h 5.50764 l -0.51942,2.60605 h -5.49868 l -0.59106,3.06279 h 6.03601 l -0.49255,2.60605 h -9.5018 z"
         style="font-style:italic;font-variant:normal;font-weight:bold;font-stretch:normal;font-size:medium;line-height:1.25;font-family:sans-serif;-inkscape-font-specification:'sans-serif Bold Italic';letter-spacing:0px;word-spacing:0px;fill:url(#linearGradient1309);fill-opacity:1;stroke:none;stroke-width:1.73299742;stroke-linejoin:round;stroke-miterlimit:4;stroke-dasharray:none"
         id="path1292"
         inkscape:connector-curvature="0" />
      <path
         d="m 256.52741,132.07205 q 0.92242,0 1.44184,-0.46569 0.51942,-0.46568 0.51942,-1.28064 0,-0.52837 -0.36718,-0.80599 -0.35822,-0.27762 -1.03884,-0.27762 h -1.92543 l -0.55524,2.82994 z m -1.02093,5.84795 q 1.18213,0 1.81797,-0.5642 0.63584,-0.5642 0.63584,-1.62095 0,-0.67166 -0.43882,-0.99406 -0.43882,-0.3224 -1.34332,-0.3224 h -2.0329 l -0.68062,3.50161 z m 4.08372,-4.80911 q 0.87764,0.25075 1.35228,0.92242 0.4836,0.6627 0.4836,1.64781 0,2.15828 -1.61199,3.37623 -1.60304,1.20899 -4.51358,1.20899 h -5.72257 l 2.60605,-13.37058 h 5.16733 q 2.38217,0 3.51952,0.69853 1.1463,0.69853 1.1463,2.15828 0,1.22691 -0.67166,2.15828 -0.67167,0.92242 -1.75528,1.20004 z"
         style="font-style:italic;font-variant:normal;font-weight:bold;font-stretch:normal;font-size:medium;line-height:1.25;font-family:sans-serif;-inkscape-font-specification:'sans-serif Bold Italic';letter-spacing:0px;word-spacing:0px;fill:url(#linearGradient1311);fill-opacity:1;stroke:none;stroke-width:1.73299742;stroke-linejoin:round;stroke-miterlimit:4;stroke-dasharray:none"
         id="path1294"
         inkscape:connector-curvature="0" />
      <path
         d="m 269.898,132.82431 q 1.17317,0 1.77319,-0.54628 0.60897,-0.54629 0.60897,-1.60304 0,-0.66271 -0.42091,-0.9672 -0.41195,-0.31344 -1.3075,-0.31344 h -1.42393 l -0.68062,3.42996 z m -1.90753,2.38217 -0.99406,5.05986 h -3.44787 l 2.60605,-13.37058 h 5.09569 q 2.20306,0 3.34041,0.82391 1.13735,0.82391 1.13735,2.42694 0,1.62095 -0.89556,2.66875 -0.89555,1.04779 -2.42694,1.20003 0.69853,0.14329 1.16422,0.71645 0.46568,0.56419 0.81495,1.73736 l 1.13735,3.79714 h -3.42996 l -1.00302,-3.32249 q -0.30449,-0.99406 -0.74331,-1.36124 -0.42986,-0.37613 -1.25377,-0.37613 z"
         style="font-style:italic;font-variant:normal;font-weight:bold;font-stretch:normal;font-size:medium;line-height:1.25;font-family:sans-serif;-inkscape-font-specification:'sans-serif Bold Italic';letter-spacing:0px;word-spacing:0px;fill:url(#linearGradient1313);fill-opacity:1;stroke:none;stroke-width:1.73299742;stroke-linejoin:round;stroke-miterlimit:4;stroke-dasharray:none"
         id="path1296"
         inkscape:connector-curvature="0" />
      <path
         d="m 280.26848,126.89576 h 9.29582 l -0.51047,2.60606 h -5.84794 l -0.4836,2.48963 h 5.50764 l -0.51942,2.60605 h -5.49869 l -0.59106,3.06279 h 6.03601 l -0.49255,2.60605 h -9.5018 z"
         style="font-style:italic;font-variant:normal;font-weight:bold;font-stretch:normal;font-size:medium;line-height:1.25;font-family:sans-serif;-inkscape-font-specification:'sans-serif Bold Italic';letter-spacing:0px;word-spacing:0px;fill:url(#linearGradient1315);fill-opacity:1;stroke:none;stroke-width:1.73299742;stroke-linejoin:round;stroke-miterlimit:4;stroke-dasharray:none"
         id="path1298"
         inkscape:connector-curvature="0" />
      <path
         d="m 291.77631,126.89576 h 3.18817 l 0.41195,9.71673 4.20013,-9.71673 h 3.27772 l 0.43882,9.71673 4.05685,-9.71673 h 3.42996 l -5.75839,13.37058 h -3.90461 l -0.44777,-10.1645 -4.32552,10.1645 h -3.99415 z"
         style="font-style:italic;font-variant:normal;font-weight:bold;font-stretch:normal;font-size:medium;line-height:1.25;font-family:sans-serif;-inkscape-font-specification:'sans-serif Bold Italic';letter-spacing:0px;word-spacing:0px;fill:url(#linearGradient1317);fill-opacity:1;stroke:none;stroke-width:1.73299742;stroke-linejoin:round;stroke-miterlimit:4;stroke-dasharray:none"
         id="path1300"
         inkscape:connector-curvature="0" />
    </g>
    <path
       inkscape:connector-curvature="0"
       id="path1357"
       d="m 68.423212,95.387274 c -1.481494,0 -2.674254,1.192761 -2.674254,2.674255 V 115.82634 H 47.98415 c -1.481495,0 -2.674255,1.19276 -2.674255,2.67425 v 13.96659 c 0,1.4815 1.19276,2.67374 2.674255,2.67374 h 17.764808 v 17.76532 c 0,1.4815 1.19276,2.67374 2.674254,2.67374 h 13.966074 c 1.481494,0 2.674255,-1.19224 2.674255,-2.67374 v -17.76532 h 17.764809 c 1.48149,0 2.67425,-1.19224 2.67425,-2.67374 v -13.96659 c 0,-1.48149 -1.19276,-2.67425 -2.67425,-2.67425 H 85.063541 V 98.061529 c 0,-1.481494 -1.192761,-2.674255 -2.674255,-2.674255 z"
       style="opacity:1;fill:#ce5c00;fill-opacity:0;stroke:#2e3436;stroke-width:5;stroke-linecap:round;stroke-linejoin:round;stroke-miterlimit:4;stroke-dasharray:none;stroke-dashoffset:0;stroke-opacity:1;paint-order:normal" />
    <path
       style="opacity:1;fill:#eeeeec;fill-opacity:1;stroke:#babdb6;stroke-width:1;stroke-linecap:round;stroke-linejoin:round;stroke-miterlimit:4;stroke-dasharray:none;stroke-dashoffset:0;stroke-opacity:1;paint-order:normal"
       d="m 68.423212,95.387274 c -1.481494,0 -2.674254,1.192761 -2.674254,2.674255 V 115.82634 H 47.98415 c -1.481495,0 -2.674255,1.19276 -2.674255,2.67425 v 13.96659 c 0,1.4815 1.19276,2.67374 2.674255,2.67374 h 17.764808 v 17.76532 c 0,1.4815 1.19276,2.67374 2.674254,2.67374 h 13.966074 c 1.481494,0 2.674255,-1.19224 2.674255,-2.67374 v -17.76532 h 17.764809 c 1.48149,0 2.67425,-1.19224 2.67425,-2.67374 v -13.96659 c 0,-1.48149 -1.19276,-2.67425 -2.67425,-2.67425 H 85.063541 V 98.061529 c 0,-1.481494 -1.192761,-2.674255 -2.674255,-2.674255 z"
       id="rect1350"
       inkscape:connector-curvature="0" />
    <circle
       style="opacity:1;fill:url(#radialGradient1373);fill-opacity:1;stroke:none;stroke-width:3;stroke-linecap:round;stroke-linejoin:round;stroke-miterlimit:4;stroke-dasharray:none;stroke-dashoffset:0;stroke-opacity:1;paint-order:normal"
       id="path1355"
       cx="75.40625"
       cy="125.48363"
       r="7.5406251" />
    <path
       style="fill:#d3d7cf;stroke:none;stroke-width:0.26458332px;stroke-linecap:butt;stroke-linejoin:miter;stroke-opacity:1"
       d="m 75.406251,100.38128 -5.657536,9.79992 h 5.657536 5.65753 z"
       id="path1381"
       inkscape:connector-curvature="0"
       inkscape:transform-center-x="2e-06"
       inkscape:transform-center-y="-20.20239" />
    <path
       inkscape:transform-center-x="-20.20239"
       inkscape:connector-curvature="0"
       id="path1386"
       d="m 100.5086,125.48363 -9.79992,-5.65753 v 5.65753 5.65753 z"
       style="fill:#d3d7cf;stroke:none;stroke-width:0.26458332px;stroke-linecap:butt;stroke-linejoin:miter;stroke-opacity:1" />
    <path
       style="fill:#d3d7cf;stroke:none;stroke-width:0.26458332px;stroke-linecap:butt;stroke-linejoin:miter;stroke-opacity:1"
       d="m 75.40625,150.58598 5.65753,-9.79992 h -5.65753 -5.65753 z"
       id="path1388"
       inkscape:connector-curvature="0"
       inkscape:transform-center-y="20.20239" />
    <path
       inkscape:connector-curvature="0"
       id="path1390"
       d="m 50.3039,125.48363 9.79992,5.65753 v -5.65753 -5.65753 z"
       style="fill:#d3d7cf;stroke:none;stroke-width:0.26458332px;stroke-linecap:butt;stroke-linejoin:miter;stroke-opacity:1"
       inkscape:transform-center-x="20.20239" />
    <g
       aria-label="A"
       style="font-style:normal;font-weight:normal;font-size:16.22932625px;line-height:1.25;font-family:sans-serif;letter-spacing:5.57883072px;word-spacing:0px;fill:#555753;fill-opacity:1;stroke:none;stroke-width:0.40573314"
       id="text1394">
      <path
         d="m 446.8893,110.91677 -2.17131,5.88789 h 4.35054 z m -0.90339,-1.57697 h 1.8147 l 4.50903,11.83124 h -1.66414 l -1.07773,-3.03507 h -5.33317 l -1.07773,3.03507 h -1.68792 z"
         style="letter-spacing:0px;fill:#555753;stroke-width:0.40573314"
         id="path1403" />
    </g>
    <g
       aria-label="B"
       style="font-style:normal;font-weight:normal;font-size:16.22932625px;line-height:1.25;font-family:sans-serif;letter-spacing:5.57883072px;word-spacing:0px;fill:#555753;fill-opacity:1;stroke:none;stroke-width:0.40573314"
       id="text1398">
      <path
         d="m 403.13152,130.95686 v 4.33469 h 2.56753 q 1.29169,0 1.9098,-0.53094 0.62603,-0.53887 0.62603,-1.64037 0,-1.10943 -0.62603,-1.63244 -0.61811,-0.53094 -1.9098,-0.53094 z m 0,-4.86563 v 3.56601 h 2.36942 q 1.17282,0 1.74338,-0.43584 0.57849,-0.44377 0.57849,-1.34716 0,-0.89547 -0.57849,-1.33924 -0.57056,-0.44377 -1.74338,-0.44377 z m -1.60074,-1.31546 h 4.08903 q 1.83055,0 2.82111,0.76075 0.99056,0.76075 0.99056,2.16338 0,1.08565 -0.50717,1.72753 -0.50716,0.64189 -1.4898,0.80038 1.18075,0.25358 1.83056,1.06188 0.65773,0.80037 0.65773,2.00489 0,1.58489 -1.07773,2.44866 -1.07773,0.86377 -3.06677,0.86377 h -4.24752 z"
         style="letter-spacing:0px;fill:#555753;stroke-width:0.40573314"
         id="path1400" />
    </g>
  </g>
</svg>
