<?xml version="1.0" encoding="UTF-8" standalone="no"?>
<!-- Created with Inkscape (http://www.inkscape.org/) -->

<svg
   xmlns:dc="http://purl.org/dc/elements/1.1/"
   xmlns:cc="http://creativecommons.org/ns#"
   xmlns:rdf="http://www.w3.org/1999/02/22-rdf-syntax-ns#"
   xmlns:svg="http://www.w3.org/2000/svg"
   xmlns="http://www.w3.org/2000/svg"
   xmlns:sodipodi="http://sodipodi.sourceforge.net/DTD/sodipodi-0.dtd"
   xmlns:inkscape="http://www.inkscape.org/namespaces/inkscape"
   width="256"
   height="176"
   id="svg2"
   version="1.1"
   inkscape:version="0.48.3.1 r9886"
   sodipodi:docname="psx_gamepad.svg">
  <defs
     id="defs4" />
  <sodipodi:namedview
     id="base"
     pagecolor="#ffffff"
     bordercolor="#666666"
     borderopacity="1.0"
     inkscape:pageopacity="0.0"
     inkscape:pageshadow="2"
     inkscape:zoom="0.4665165"
     inkscape:cx="-310.57408"
     inkscape:cy="523.87919"
     inkscape:document-units="px"
     inkscape:current-layer="layer1"
     showgrid="false"
     inkscape:window-width="1280"
     inkscape:window-height="957"
     inkscape:window-x="-4"
     inkscape:window-y="0"
     inkscape:window-maximized="1" />
  <metadata
     id="metadata7">
    <rdf:RDF>
      <cc:Work
         rdf:about="">
        <dc:format>image/svg+xml</dc:format>
        <dc:type
           rdf:resource="http://purl.org/dc/dcmitype/StillImage" />
        <dc:title />
      </cc:Work>
    </rdf:RDF>
  </metadata>
  <g
     inkscape:label="Ebene 1"
     inkscape:groupmode="layer"
     id="layer1"
     transform="translate(0,-876.36218)">
    <path
       style="fill:#555753;fill-opacity:1;stroke:none"
       d="m 63.48292,876.63868 c -5.40145,0 -10.53591,1.12879 -15.18845,3.16144 l -0.54244,2.7546 c -0.84463,0.31086 -1.67994,0.64171 -2.50034,1.00013 l -2.57661,13.14581 c -5.21324,2.67847 -9.84401,6.32958 -13.65435,10.71328 -0.009,0.009 -0.0167,0.0168 -0.0254,0.0254 -0.009,0.0106 -0.0162,0.0233 -0.0254,0.0339 -0.67344,0.67235 -1.35009,1.5146 -2.0257,2.51729 -4.36017,5.81404 -7.36496,12.70478 -8.55198,20.19759 C 8.32046,962.01191 -2e-5,1014.6541 -2e-5,1024.9634 c 0,14.9792 12.14307,27.1223 27.12224,27.1223 10.39045,0 27.61916,-18.896 37.19985,-35.4709 4.65761,3.7676 10.58736,6.0262 17.04463,6.0262 14.9792,0 27.12224,-12.143 27.12224,-27.12218 l 1.05099,0 36.92014,0 1.05099,0 c 0,14.97918 12.14304,27.12218 27.12224,27.12218 6.45727,0 12.38702,-2.2586 17.04463,-6.0262 9.58066,16.5749 26.8094,35.4709 37.19985,35.4709 14.97917,0 27.12224,-12.1431 27.12224,-27.1223 0,-10.3093 -8.32048,-62.95149 -18.39227,-94.77527 -1.18702,-7.49281 -4.19181,-14.38354 -8.55198,-20.19759 -0.67561,-1.00268 -1.35226,-1.84494 -2.0257,-2.51729 -0.009,-0.0106 -0.0162,-0.0233 -0.0254,-0.0339 -0.009,-0.009 -0.0168,-0.0169 -0.0254,-0.0254 -3.81034,-4.3837 -8.44111,-8.03481 -13.65435,-10.71328 l -2.57661,-13.14581 c -0.8204,-0.35842 -1.65571,-0.68927 -2.50034,-1.00013 l -0.54244,-2.7546 c -4.65254,-2.03265 -9.787,-3.16144 -15.18845,-3.16144 -5.12944,0 -10.01277,1.02141 -14.4765,2.86479 l -0.54244,2.74612 c -0.83515,0.28918 -1.66234,0.60524 -2.47491,0.94081 l -2.56814,13.078 c -6.67357,3.25138 -12.43717,8.08201 -16.80731,14.00186 l -9.18766,0 -36.92014,0 -9.18766,0 C 95.98218,904.35042 90.21855,899.51981 83.54501,896.26841 l -2.56814,-13.078 c -0.81257,-0.33557 -1.63976,-0.65163 -2.47491,-0.94082 l -0.54244,-2.74612 c -4.46373,-1.84338 -9.34706,-2.86479 -14.4765,-2.86479 z m 0.0593,18.33295 c 23.41626,0 42.42936,19.0131 42.42936,42.42935 0,13.11143 -5.96805,24.83846 -15.32407,32.62297 -0.99,-0.36059 -2.00276,-0.6622 -3.04277,-0.9069 9.56913,-7.26703 15.74785,-18.76025 15.74785,-31.71607 0,-22.00211 -17.80825,-39.81884 -39.81037,-39.81884 -22.00211,0 -39.81036,17.81673 -39.81036,39.81884 0,21.28846 16.67175,38.63881 37.68296,39.74255 -0.72236,0.78402 -1.39879,1.60973 -2.02569,2.47491 -21.46811,-2.09146 -38.26778,-20.20375 -38.26778,-42.21746 0,-23.41625 19.00463,-42.42935 42.42087,-42.42935 z m 128.9154,0 c 23.41624,0 42.42087,19.0131 42.42087,42.42935 0,22.0137 -16.79967,40.12599 -38.26778,42.21745 -0.6269,-0.86517 -1.30333,-1.69089 -2.02569,-2.47491 21.01121,-1.10374 37.68296,-18.45409 37.68296,-39.74255 0,-22.00211 -17.80825,-39.81884 -39.81036,-39.81884 -22.00212,0 -39.81037,17.81673 -39.81037,39.81884 0,12.95582 6.17872,24.44904 15.74785,31.71607 -1.04001,0.2447 -2.05277,0.54631 -3.04277,0.9069 -9.35602,-7.78451 -15.32407,-19.51154 -15.32407,-32.62297 0,-23.41625 19.0131,-42.42935 42.42936,-42.42935 z m -137.1453,11.34047 15.91736,0 c 2.76207,0 4.97524,2.35963 4.97524,5.22104 l 0,12.93391 12.93392,0 c 2.85988,0 5.22103,2.2047 5.22103,4.96676 l 0,15.92584 c 0,2.76206 -2.36115,4.96676 -5.22103,4.96676 l -12.93392,0 0,12.93393 c 0,2.8614 -2.21317,5.22103 -4.97524,5.22103 l -15.91736,0 c -2.76244,0 -4.85419,-2.37073 -4.96676,-5.1956 a 0.67812377,0.67812377 0 0 1 0,-0.0254 l 0,-12.93392 -12.94239,0 c -2.85988,0 -5.22103,-2.2047 -5.22103,-4.96676 l 0,-15.92584 c 0,-2.76207 2.36115,-4.96677 5.22103,-4.96677 l 12.94239,0 0,-12.93393 c 0,-2.85987 2.2047,-5.22102 4.96676,-5.22102 z m 129.45784,0 15.91736,0 c 2.76206,0 4.96676,2.36115 4.96676,5.22104 l 0,12.93391 12.94239,0 c 2.85988,0 5.22103,2.2047 5.22103,4.96676 l 0,15.92584 c 0,2.76206 -2.36115,4.96676 -5.22103,4.96676 l -12.94239,0 0,12.93393 a 0.67812377,0.67812377 0 0 1 0,0.0254 c -0.11257,2.82487 -2.20432,5.1956 -4.96676,5.1956 l -15.91736,0 c -2.76207,0 -4.97524,-2.35963 -4.97524,-5.22103 l 0,-12.93393 -12.93392,0 c -2.85988,0 -5.22103,-2.2047 -5.22103,-4.96676 l 0,-15.92584 c 0,-2.76206 2.36115,-4.96676 5.22103,-4.96676 l 12.93392,0 0,-12.93392 c 0,-2.8614 2.21317,-5.22103 4.97524,-5.22103 z m -129.45784,1.35612 c -1.99113,0 -3.61065,1.69201 -3.61065,3.86492 l 0,13.61198 a 0.67812377,0.67812377 0 0 1 -0.67805,0.67805 l -13.62045,0 c -2.17291,0 -3.86492,1.61951 -3.86492,3.61064 l 0,15.92584 c 0,1.99113 1.69201,3.61065 3.86492,3.61065 l 13.62045,0 a 0.67812377,0.67812377 0 0 1 0.67805,0.67806 l 0,13.58654 c 2.7e-4,0.009 -2.7e-4,0.0168 0,0.0254 0.0988,2.19122 1.62771,3.86492 3.61065,3.86492 l 15.91736,0 c 1.99114,0 3.61913,-1.69353 3.61913,-3.86492 l 0,-13.61197 a 0.67812377,0.67812377 0 0 1 0.67805,-0.67806 l 13.61198,0 c 2.17291,0 3.86492,-1.61952 3.86492,-3.61065 l 0,-15.92584 c 0,-1.99113 -1.69201,-3.61065 -3.86492,-3.61065 l -13.61198,0 a 0.67812377,0.67812377 0 0 1 -0.67805,-0.67805 l 0,-13.61198 c 0,-2.17138 -1.62799,-3.86491 -3.61913,-3.86491 l -15.91736,0 z m 129.45784,0 c -1.99114,0 -3.61913,1.69354 -3.61913,3.86492 l 0,13.61198 a 0.67812377,0.67812377 0 0 1 -0.67805,0.67805 l -13.61198,0 c -2.17291,0 -3.86492,1.61951 -3.86492,3.61064 l 0,15.92584 c 0,1.99113 1.69201,3.61065 3.86492,3.61065 l 13.61198,0 a 0.67812377,0.67812377 0 0 1 0.67805,0.67806 l 0,13.61197 c 0,2.17139 1.62799,3.86492 3.61913,3.86492 l 15.91736,0 c 1.98294,0 3.51188,-1.6737 3.61065,-3.86492 2.7e-4,-0.009 -2.7e-4,-0.0168 0,-0.0254 l 0,-13.58654 a 0.67812377,0.67812377 0 0 1 0.67805,-0.67806 l 13.62045,0 c 2.17291,0 3.86492,-1.61952 3.86492,-3.61064 l 0,-15.92584 c 0,-1.99113 -1.69201,-3.61065 -3.86492,-3.61065 l -13.62045,0 a 0.67812377,0.67812377 0 0 1 -0.67805,-0.67805 l 0,-13.61199 c 0,-2.17291 -1.61952,-3.86491 -3.61065,-3.86491 l -15.91736,0 z m 8.05191,1.7375 c 5.10704,0 9.24699,4.13995 9.24699,9.247 0,5.10705 -4.13995,9.24698 -9.24699,9.24698 -5.10704,0 -9.24699,-4.13994 -9.24699,-9.24698 0,-5.10705 4.13995,-9.247 9.24699,-9.247 z m -134.99247,2.91565 10.30645,0 c 1.61191,0 2.90717,1.18079 2.90717,2.65289 l 0,10.19628 -7.90783,7.96715 -8.21295,-7.96715 0,-10.19628 c 0,-1.47211 1.29525,-2.65289 2.90716,-2.65289 z m 116.06623,15.50207 c 5.10705,0 9.24699,4.13994 9.24699,9.24698 0,5.10704 -4.13994,9.24699 -9.24699,9.24699 -5.10704,0 -9.24698,-4.13995 -9.24698,-9.24699 0,-5.10706 4.13994,-9.24698 9.24698,-9.24698 z m 37.34394,0.25427 c 5.10704,0 9.24698,4.13994 9.24698,9.24699 0,5.10703 -4.13994,9.24698 -9.24698,9.24698 -5.10705,0 -9.24699,-4.13995 -9.24699,-9.24698 0,-5.10705 4.13994,-9.24699 9.24699,-9.24699 z m -169.5818,1.17812 10.19626,0 7.55185,7.501 -7.55185,8.62825 -10.19626,0 c -1.47212,0 -2.6529,-1.30372 -2.6529,-2.91564 l 0,-10.29798 c 0,-1.61192 1.18078,-2.91564 2.6529,-2.91564 z m 33.47054,0.20342 10.19626,0 c 1.47212,0 2.6529,1.30373 2.6529,2.91564 l 0,10.29797 c 0,1.61191 -1.18078,2.91565 -2.6529,2.91565 l -10.19626,0 -7.96716,-8.31467 7.96716,-7.81459 z m -12.09483,11.43372 8.61979,7.95868 0,10.19627 c 0,1.47211 -1.29525,2.66137 -2.90717,2.66137 l -10.30645,0 c -1.61191,0 -2.90716,-1.18926 -2.90716,-2.66137 l 0,-10.19627 7.50099,-7.95868 z m 129.53412,5.61091 c 5.10704,0 9.24699,4.13994 9.24699,9.24699 0,5.10704 -4.13995,9.24699 -9.24699,9.24699 -5.10704,0 -9.24699,-4.13995 -9.24699,-9.24699 0,-5.10705 4.13995,-9.24699 9.24699,-9.24699 z m -82.3499,3.77169 9.52669,0 c 1.47211,0 2.65289,1.29524 2.65289,2.90716 l 0,1.6019 c 0,1.61191 -1.18078,2.90716 -2.65289,2.90716 l -9.52669,0 c -1.47211,0 -2.65289,-1.29525 -2.65289,-2.90716 l 0,-1.6019 c 0,-1.61192 1.18078,-2.90716 2.65289,-2.90716 z m 26.5798,0 12.17958,3.92424 -12.17958,3.49199 c -1.47212,0 -2.6529,-1.29526 -2.6529,-2.90716 l 0,-1.60191 c 0,-1.61192 1.18078,-2.90716 2.6529,-2.90716 z m -55.43108,21.99444 c 12.83931,0 23.24884,10.40953 23.24884,23.24883 0,12.83926 -10.40953,23.24036 -23.24884,23.24036 -12.83931,0 -23.24884,-10.4011 -23.24884,-23.24036 0,-12.83931 10.40953,-23.24883 23.24884,-23.24883 z m 93.2666,0 c 12.83931,0 23.24884,10.40953 23.24884,23.24883 0,12.83926 -10.40953,23.24036 -23.24884,23.24036 -12.83931,0 -23.24884,-10.4011 -23.24884,-23.24036 0,-12.83931 10.40953,-23.24883 23.24884,-23.24883 z m -93.2666,2.32233 c -11.55538,0 -20.91803,9.37112 -20.91803,20.9265 0,11.55536 9.36265,20.92646 20.91803,20.92646 11.55538,0 20.9265,-9.3711 20.9265,-20.92646 0,-11.55538 -9.37112,-20.92649 -20.9265,-20.92649 z m 93.2666,0 c -11.55538,0 -20.9265,9.37112 -20.9265,20.9265 0,11.55536 9.37112,20.92646 20.9265,20.92646 11.55538,0 20.9265,-9.3711 20.9265,-20.92646 0,-11.55538 -9.37112,-20.92649 -20.9265,-20.92649 z m -53.86307,1.19507 14.45954,0 c 1.47212,0 2.66137,1.29527 2.66137,2.90718 l 0,2.83936 c 0,1.61191 -1.18925,2.90716 -2.66137,2.90716 l -14.45954,0 c -1.47212,0 -2.66137,-1.29526 -2.66137,-2.90716 l 0,-2.83936 c 0,-1.61191 1.18925,-2.90718 2.66137,-2.90718 z"
       id="rect3003"
       inkscape:connector-curvature="0" />
    <rect
       style="opacity:0.79020978;fill:#2e3436;fill-opacity:1;stroke:none"
       id="rect2985"
       width="320.00003"
       height="314.28571"
       x="977.14288"
       y="340.93362"
       rx="0"
       ry="0" />
    <path
       sodipodi:type="arc"
       style="opacity:0.79020978;fill:#2e3436;fill-opacity:1;stroke:none"
       id="path2987"
       sodipodi:cx="420"
       sodipodi:cy="192.36218"
       sodipodi:rx="205.71428"
       sodipodi:ry="205.71428"
       d="m 625.71428,192.36218 c 0,113.61286 -92.10142,205.71428 -205.71428,205.71428 -113.61286,0 -205.71428,-92.10142 -205.71428,-205.71428 0,-113.612857 92.10142,-205.714277 205.71428,-205.714277 113.61286,0 205.71428,92.10142 205.71428,205.714277 z"
       transform="matrix(0.81944444,0,0,0.81944444,938.69048,283.30349)" />
    <path
       transform="matrix(0.4861111,0,0,0.4861111,1012.9762,561.70994)"
       d="m 625.71428,192.36218 c 0,113.61286 -92.10142,205.71428 -205.71428,205.71428 -113.61286,0 -205.71428,-92.10142 -205.71428,-205.71428 0,-113.612857 92.10142,-205.714277 205.71428,-205.714277 113.61286,0 205.71428,92.10142 205.71428,205.714277 z"
       sodipodi:ry="205.71428"
       sodipodi:rx="205.71428"
       sodipodi:cy="192.36218"
       sodipodi:cx="420"
       id="path2989"
       style="opacity:0.79020978;fill:#2e3436;fill-opacity:1;stroke:none"
       sodipodi:type="arc" />
    <path
       style="opacity:0.79020978;fill:#2e3436;fill-opacity:1;stroke:none"
       d="m 1517.1429,763.79076 c 0,55.22847 -44.7716,100 -100,100 -55.2285,0 -162.8572,-144.77153 -162.8572,-200 0,-55.22847 87.6287,-339.99999 142.8572,-339.99999 55.2284,0 120,384.77152 120,439.99999 z"
       id="path2991"
       inkscape:connector-curvature="0"
       sodipodi:nodetypes="sssss" />
    <path
       style="opacity:0.79020978;fill:#2e3436;fill-opacity:1;stroke:none"
       d="m 1282.8482,228.375 c -22.7699,0 -44.4664,4.50463 -64.2812,12.6875 l -27.125,138.15625 -8.4063,153.5625 c 27.9462,20.57292 62.4488,32.71875 99.8125,32.71875 38.585,0 74.1466,-12.97355 102.5625,-34.78125 l -8.2812,-151.5 -26.8438,-136.8125 C 1329.6328,233.3832 1306.8256,228.375 1282.8482,228.375 z"
       id="path2994"
       inkscape:connector-curvature="0" />
    <path
       inkscape:connector-curvature="0"
       id="path3800"
       d="m -519.776,176.93231 c -18.9123,0 -36.93305,3.74147 -53.39089,10.53803 l -22.52957,114.75026 -6.98213,127.54644 c 23.21164,17.08753 51.86892,27.17565 82.90259,27.17565 32.04805,0 61.58492,-10.77561 85.18669,-28.88872 l -6.87822,-125.83337 -22.29601,-113.63417 c -17.15396,-7.49439 -36.09724,-11.65412 -56.01246,-11.65412 z"
       style="opacity:0.79020978;fill:#2e3436;fill-opacity:1;stroke:none" />
    <path
       id="path3802"
       d="m -519.99554,188.38839 c -22.7699,0 -44.46645,4.50463 -64.28125,12.6875 l -9.46875,48.21875 c -24.60543,11.98794 -45.85602,29.79848 -61.96875,51.625 l -170,0 0,314.3125 140,0 c 0,55.22847 44.77153,100 100,100 23.80803,0 45.6711,-8.32768 62.84375,-22.21875 35.32411,61.11179 98.84654,130.78125 137.15625,130.78125 55.2284,0 100,-44.77153 100,-100 0,-38.01066 -30.67767,-232.10281 -67.8125,-349.4375 -4.37656,-27.62608 -15.45524,-53.03228 -31.53125,-74.46875 -2.49095,-3.69685 -4.98578,-6.80229 -7.46875,-9.28125 -0.034,-0.0392 -0.0598,-0.0858 -0.0937,-0.125 -0.0321,-0.0318 -0.0617,-0.0622 -0.0937,-0.0937 -14.04878,-16.16275 -31.12246,-29.62447 -50.34375,-39.5 l -9.5,-48.46875 c -20.6529,-9.02305 -43.4601,-14.03125 -67.4375,-14.03125 z"
       style="fill:#555753;fill-opacity:1;stroke:none"
       inkscape:connector-curvature="0" />
    <path
       sodipodi:type="arc"
       style="opacity:0.79020978;fill:#2e3436;fill-opacity:1;stroke:none"
       id="path3804"
       sodipodi:cx="420"
       sodipodi:cy="192.36218"
       sodipodi:rx="205.71428"
       sodipodi:ry="205.71428"
       d="m 625.71428,192.36218 c 0,113.61286 -92.10142,205.71428 -205.71428,205.71428 -113.61286,0 -205.71428,-92.10142 -205.71428,-205.71428 0,-113.612857 92.10142,-205.714277 205.71428,-205.714277 113.61286,0 205.71428,92.10142 205.71428,205.714277 z"
       transform="matrix(0.41666665,0,0,0.41666665,-760.71428,535.06843)" />
    <path
       transform="matrix(0.37499998,0,0,0.37499998,-743.21428,543.08352)"
       d="m 625.71428,192.36218 c 0,113.61286 -92.10142,205.71428 -205.71428,205.71428 -113.61286,0 -205.71428,-92.10142 -205.71428,-205.71428 0,-113.612857 92.10142,-205.714277 205.71428,-205.714277 113.61286,0 205.71428,92.10142 205.71428,205.714277 z"
       sodipodi:ry="205.71428"
       sodipodi:rx="205.71428"
       sodipodi:cy="192.36218"
       sodipodi:cx="420"
       id="path3806"
       style="opacity:0.79020978;fill:#2e3436;fill-opacity:1;stroke:none"
       sodipodi:type="arc" />
    <path
       transform="matrix(0.81944444,0,0,0.81944444,-864.16667,243.30349)"
       d="m 625.71428,192.36218 c 0,113.61286 -92.10142,205.71428 -205.71428,205.71428 -113.61286,0 -205.71428,-92.10142 -205.71428,-205.71428 0,-113.612857 92.10142,-205.714277 205.71428,-205.714277 113.61286,0 205.71428,92.10142 205.71428,205.714277 z"
       sodipodi:ry="205.71428"
       sodipodi:rx="205.71428"
       sodipodi:cy="192.36218"
       sodipodi:cx="420"
       id="path3808"
       style="opacity:0.79020978;fill:#2e3436;fill-opacity:1;stroke:none"
       sodipodi:type="arc" />
    <path
       id="path3810"
       d="m -519.99554,244.51339 c -86.33598,0 -156.4375,70.10153 -156.4375,156.4375 0,48.34199 22.00426,91.57967 56.5,120.28125 3.65015,-1.3295 7.38419,-2.44153 11.21875,-3.34375 -35.28149,-26.79363 -58.0625,-69.16926 -58.0625,-116.9375 0,-81.12204 65.65921,-146.8125 146.78125,-146.8125 81.12203,0 146.78125,65.69046 146.78125,146.8125 0,78.49081 -61.46891,142.46172 -138.9375,146.53125 2.66336,2.89069 5.15736,5.9351 7.46875,9.125 79.15316,-7.71122 141.09375,-74.49144 141.09375,-155.65625 0,-86.33597 -70.07028,-156.4375 -156.40625,-156.4375 z"
       style="font-size:medium;font-style:normal;font-variant:normal;font-weight:normal;font-stretch:normal;text-indent:0;text-align:start;text-decoration:none;line-height:normal;letter-spacing:normal;word-spacing:normal;text-transform:none;direction:ltr;block-progression:tb;writing-mode:lr-tb;text-anchor:start;baseline-shift:baseline;opacity:0.79020978;color:#000000;fill:#eeeeec;fill-opacity:1;stroke:none;stroke-width:13.090909;marker:none;visibility:visible;display:inline;overflow:visible;enable-background:accumulate;font-family:Sans;-inkscape-font-specification:Sans"
       inkscape:connector-curvature="0" />
    <path
       inkscape:connector-curvature="0"
       id="path3834"
       d="m -549.34376,286.32424 c -10.18375,0 -18.34375,8.69997 -18.34375,19.25 l 0,47.6875 -47.6875,0 c -10.54441,0 -19.25,8.12875 -19.25,18.3125 l 0,58.71875 c 0,10.18375 8.70559,18.3125 19.25,18.3125 l 47.6875,0 0,47.6875 c 0,10.55003 8.16,19.25 18.34375,19.25 l 58.6875,0 c 10.18515,0 17.89744,-8.74092 18.3125,-19.15625 a 2.50025,2.50025 0 0 0 0,-0.0937 l 0,-47.6875 47.71875,0 c 10.54441,0 19.25,-8.12875 19.25,-18.3125 l 0,-58.71875 c 0,-10.18375 -8.70559,-18.3125 -19.25,-18.3125 l -47.71875,0 0,-47.6875 c 0,-10.54441 -8.12875,-19.25 -18.3125,-19.25 l -58.6875,0 z m 0,5 58.6875,0 c 7.34133,0 13.3125,6.23845 13.3125,14.25 l 0,50.1875 a 2.50025,2.50025 0 0 0 2.5,2.5 l 50.21875,0 c 8.01155,0 14.25,5.97117 14.25,13.3125 l 0,58.71875 c 0,7.34133 -6.23845,13.3125 -14.25,13.3125 l -50.21875,0 a 2.50025,2.50025 0 0 0 -2.5,2.5 l 0,50.09375 c -0.001,0.0319 10e-4,0.0619 0,0.0937 -0.36415,8.07907 -6.00138,14.25 -13.3125,14.25 l -58.6875,0 c -7.34133,0 -13.34375,-6.24407 -13.34375,-14.25 l 0,-50.1875 a 2.50025,2.50025 0 0 0 -2.5,-2.5 l -50.1875,0 c -8.01155,0 -14.25,-5.97117 -14.25,-13.3125 l 0,-58.71875 c 0,-7.34133 6.23845,-13.3125 14.25,-13.3125 l 50.1875,0 a 2.50025,2.50025 0 0 0 2.5,-2.5 l 0,-50.1875 c 0,-8.00593 6.00242,-14.25 13.34375,-14.25 z"
       style="font-size:medium;font-style:normal;font-variant:normal;font-weight:normal;font-stretch:normal;text-indent:0;text-align:start;text-decoration:none;line-height:normal;letter-spacing:normal;word-spacing:normal;text-transform:none;direction:ltr;block-progression:tb;writing-mode:lr-tb;text-anchor:start;baseline-shift:baseline;color:#000000;fill:#eeeeec;fill-opacity:1;stroke:none;stroke-width:5;marker:none;visibility:visible;display:inline;overflow:visible;enable-background:accumulate;font-family:Sans;-inkscape-font-specification:Sans" />
  </g>
</svg>
