<?xml version="1.0" encoding="UTF-8" standalone="no"?>
<!-- Created with Inkscape (http://www.inkscape.org/) -->

<svg
   xmlns:dc="http://purl.org/dc/elements/1.1/"
   xmlns:cc="http://creativecommons.org/ns#"
   xmlns:rdf="http://www.w3.org/1999/02/22-rdf-syntax-ns#"
   xmlns:svg="http://www.w3.org/2000/svg"
   xmlns="http://www.w3.org/2000/svg"
   xmlns:xlink="http://www.w3.org/1999/xlink"
   xmlns:sodipodi="http://sodipodi.sourceforge.net/DTD/sodipodi-0.dtd"
   xmlns:inkscape="http://www.inkscape.org/namespaces/inkscape"
   width="512"
   height="256"
   viewBox="0 0 135.46666 67.733336"
   version="1.1"
   id="svg8"
   inkscape:version="0.92.3 (2405546, 2018-03-11)"
   sodipodi:docname="SNES_Gamepad_Georg_Eckert.svg">
  <defs
     id="defs2">
    <linearGradient
       inkscape:collect="always"
       id="linearGradient1099">
      <stop
         style="stop-color:#ffffff;stop-opacity:0.5"
         offset="0"
         id="stop1095" />
      <stop
         style="stop-color:#ffffff;stop-opacity:0;"
         offset="1"
         id="stop1097" />
    </linearGradient>
    <radialGradient
       inkscape:collect="always"
       xlink:href="#linearGradient1099"
       id="radialGradient1101"
       cx="341.63422"
       cy="132.36661"
       fx="341.63422"
       fy="132.36661"
       r="14.09961"
       gradientTransform="matrix(1.3799496,0,0,1.2791268,-129.8038,-35.932774)"
       gradientUnits="userSpaceOnUse" />
    <filter
       inkscape:collect="always"
       style="color-interpolation-filters:sRGB"
       id="filter1107"
       x="-0.020651531"
       width="1.0413031"
       y="-0.028644453"
       height="1.0572889">
      <feGaussianBlur
         inkscape:collect="always"
         stdDeviation="0.24264878"
         id="feGaussianBlur1109" />
    </filter>
    <radialGradient
       inkscape:collect="always"
       xlink:href="#linearGradient1099"
       id="radialGradient1127"
       gradientUnits="userSpaceOnUse"
       gradientTransform="matrix(1.3799496,0,0,1.2791268,-129.8038,-35.932774)"
       cx="341.63422"
       cy="132.36661"
       fx="341.63422"
       fy="132.36661"
       r="14.09961" />
    <radialGradient
       inkscape:collect="always"
       xlink:href="#linearGradient1099"
       id="radialGradient1139"
       gradientUnits="userSpaceOnUse"
       gradientTransform="matrix(1.3799496,0,0,1.2791268,-129.8038,-35.932774)"
       cx="341.63422"
       cy="132.36661"
       fx="341.63422"
       fy="132.36661"
       r="14.09961" />
    <radialGradient
       inkscape:collect="always"
       xlink:href="#linearGradient1099"
       id="radialGradient1151"
       gradientUnits="userSpaceOnUse"
       gradientTransform="matrix(1.3799496,0,0,1.2791268,-129.8038,-35.932774)"
       cx="341.63422"
       cy="132.36661"
       fx="341.63422"
       fy="132.36661"
       r="14.09961" />
    <filter
       inkscape:collect="always"
       style="color-interpolation-filters:sRGB"
       id="filter1395"
       x="-0.0036481679"
       width="1.0072963"
       y="-0.016885291"
       height="1.0337706">
      <feGaussianBlur
         inkscape:collect="always"
         stdDeviation="0.73001954"
         id="feGaussianBlur1397" />
    </filter>
  </defs>
  <sodipodi:namedview
     id="base"
     pagecolor="#ffffff"
     bordercolor="#666666"
     borderopacity="1.0"
     inkscape:pageopacity="0.0"
     inkscape:pageshadow="2"
     inkscape:zoom="1.4"
     inkscape:cx="170.43384"
     inkscape:cy="127.73833"
     inkscape:document-units="mm"
     inkscape:current-layer="layer1"
     showgrid="false"
     units="px"
     inkscape:window-width="1920"
     inkscape:window-height="1024"
     inkscape:window-x="0"
     inkscape:window-y="28"
     inkscape:window-maximized="1"
     inkscape:snap-bbox="true"
     inkscape:bbox-nodes="true"
     inkscape:snap-bbox-midpoints="true"
     inkscape:snap-smooth-nodes="true"
     inkscape:snap-global="false"
     inkscape:snap-object-midpoints="true"
     inkscape:bbox-paths="true"
     inkscape:snap-bbox-edge-midpoints="true"
     inkscape:snap-center="true"
     inkscape:object-paths="true"
     inkscape:snap-intersection-paths="true"
     inkscape:snap-midpoints="true" />
  <metadata
     id="metadata5">
    <rdf:RDF>
      <cc:Work
         rdf:about="">
        <dc:format>image/svg+xml</dc:format>
        <dc:type
           rdf:resource="http://purl.org/dc/dcmitype/StillImage" />
        <dc:title></dc:title>
      </cc:Work>
    </rdf:RDF>
  </metadata>
  <g
     inkscape:label="Ebene 1"
     inkscape:groupmode="layer"
     id="layer1"
     transform="translate(0,-229.26665)">
    <path
       style="opacity:1;fill:#888886;fill-opacity:1;stroke:none;stroke-width:3.44348693;stroke-linecap:round;stroke-linejoin:round;stroke-miterlimit:4;stroke-dasharray:none;stroke-dashoffset:0;stroke-opacity:1;paint-order:stroke markers fill"
       d="m 90.65993,237.68218 v 1.33337 h 17.14636 c 5.7303,3e-5 11.07455,1.66926 15.57295,4.54744 v -2.23855 a 27.76356,27.76356 0 0 0 -13.67746,-3.64226 z"
       id="path995"
       inkscape:connector-curvature="0" />
    <path
       id="path1011"
       d="m 44.51345,237.68218 v 1.33338 H 27.36709 c -5.730296,2e-5 -11.074544,1.66925 -15.572958,4.54743 v -2.23855 a 27.76356,27.76356 0 0 1 13.677474,-3.64226 z"
       style="opacity:1;fill:#888886;fill-opacity:1;stroke:none;stroke-width:3.44348693;stroke-linecap:round;stroke-linejoin:round;stroke-miterlimit:4;stroke-dasharray:none;stroke-dashoffset:0;stroke-opacity:1;paint-order:stroke markers fill"
       inkscape:connector-curvature="0"
       inkscape:transform-center-x="36.200719"
       inkscape:transform-center-y="-19.164928" />
    <path
       id="path1153"
       d="M 27.763417,241.47316 A 27.763561,27.763561 0 0 0 -2.47373e-7,269.23656 27.763561,27.763561 0 0 0 27.763417,296.99998 27.763561,27.763561 0 0 0 45.439178,290.61753 H 90.01021 a 27.763561,27.763561 0 0 0 17.69304,6.38245 27.763561,27.763561 0 0 0 27.76342,-27.76342 27.763561,27.763561 0 0 0 -27.76342,-27.7634 z"
       style="opacity:1;fill:#a39e90;fill-opacity:1;stroke:none;stroke-width:3.44348693;stroke-linecap:round;stroke-linejoin:round;stroke-miterlimit:4;stroke-dasharray:none;stroke-dashoffset:0;stroke-opacity:1;paint-order:stroke markers fill"
       inkscape:connector-curvature="0" />
    <path
       inkscape:connector-curvature="0"
       style="opacity:1;fill:#b8b4a9;fill-opacity:1;stroke:none;stroke-width:3.44348693;stroke-linecap:round;stroke-linejoin:round;stroke-miterlimit:4;stroke-dasharray:none;stroke-dashoffset:0;stroke-opacity:1;paint-order:stroke markers fill"
       d="M 27.763417,238.314 A 27.763561,27.763561 0 0 0 -2.47373e-7,266.0774 27.763561,27.763561 0 0 0 27.763417,293.84082 27.763561,27.763561 0 0 0 45.439178,287.45837 H 90.01021 a 27.763561,27.763561 0 0 0 17.69304,6.38245 27.763561,27.763561 0 0 0 27.76342,-27.76342 27.763561,27.763561 0 0 0 -27.76342,-27.7634 z"
       id="path928" />
    <path
       style="opacity:0.2;fill:#ffffff;fill-opacity:1;stroke:none;stroke-width:13.01475334;stroke-linecap:round;stroke-linejoin:round;stroke-miterlimit:4;stroke-dasharray:none;stroke-dashoffset:0;stroke-opacity:1;paint-order:stroke markers fill;filter:url(#filter1395)"
       d="M 104.93164 37.974609 C 49.032311 37.975403 3.7980674 83.20211 3.78125 139.09766 C 3.7956458 139.9784 3.8747189 140.85638 3.9121094 141.73633 C 150.46969 113.77644 312.04391 90.965808 484.03516 73.933594 C 464.92552 51.332321 436.8908 38.01694 407.0625 37.974609 L 104.93164 37.974609 z "
       transform="matrix(0.26458333,0,0,0.26458333,0,229.26665)"
       id="path1373" />
    <circle
       style="opacity:1;fill:#747b83;fill-opacity:1;stroke:#484945;stroke-width:1.19400585;stroke-linecap:round;stroke-linejoin:round;stroke-miterlimit:4;stroke-dasharray:none;stroke-dashoffset:0;stroke-opacity:1;paint-order:stroke markers fill"
       id="circle936"
       cx="107.70329"
       cy="266.07742"
       r="25.529713" />
    <circle
       r="15.636948"
       cy="266.07742"
       cx="27.763386"
       id="circle938"
       style="opacity:1;fill:#b8b4a9;fill-opacity:1;stroke:#a5a29b;stroke-width:1.93943512;stroke-linecap:round;stroke-linejoin:round;stroke-miterlimit:4;stroke-dasharray:none;stroke-dashoffset:0;stroke-opacity:1;paint-order:stroke markers fill" />
    <path
       style="opacity:1;fill:#b8b4a9;fill-opacity:1;stroke:#484945;stroke-width:1.19400585;stroke-linecap:round;stroke-linejoin:round;stroke-miterlimit:4;stroke-dasharray:none;stroke-dashoffset:0;stroke-opacity:1;paint-order:stroke markers fill"
       d="m 91.00531,262.35317 a 5.8402946,5.8402946 0 0 0 -1.07857,8.18862 5.8402946,5.8402946 0 0 0 8.189203,1.07813 l 15.544187,-11.92747 a 5.8402946,5.8402946 0 0 0 1.07813,-8.18921 5.8402946,5.8402946 0 0 0 -8.18876,-1.07756 z"
       id="path941"
       inkscape:connector-curvature="0" />
    <g
       id="g1125"
       transform="matrix(1.1940059,0,0,1.1940059,2.4037068,-64.249651)">
      <circle
         r="4.2219181"
         cy="267.07468"
         cx="-91.23703"
         id="circle1117"
         style="opacity:1;fill:#023e7f;fill-opacity:1;stroke:none;stroke-width:3.05738378;stroke-linecap:round;stroke-linejoin:round;stroke-miterlimit:4;stroke-dasharray:none;stroke-dashoffset:0;stroke-opacity:1;paint-order:stroke markers fill"
         transform="rotate(-37.5)" />
      <circle
         transform="rotate(-37.5)"
         style="opacity:1;fill:#0250a5;fill-opacity:1;stroke:none;stroke-width:3.05738378;stroke-linecap:round;stroke-linejoin:round;stroke-miterlimit:4;stroke-dasharray:none;stroke-dashoffset:0;stroke-opacity:1;paint-order:stroke markers fill"
         id="circle1119"
         cx="-90.914894"
         cy="266.65485"
         r="4.2219181" />
      <circle
         r="3.7541964"
         cy="266.65485"
         cx="-90.914894"
         id="circle1121"
         style="opacity:1;fill:#0260c6;fill-opacity:1;stroke:none;stroke-width:2.71867394;stroke-linecap:round;stroke-linejoin:round;stroke-miterlimit:4;stroke-dasharray:none;stroke-dashoffset:0;stroke-opacity:1;paint-order:stroke markers fill"
         transform="rotate(-37.5)" />
      <path
         style="opacity:0.72100004;fill:url(#radialGradient1127);fill-opacity:1;stroke:none;stroke-width:10.27530289;stroke-linecap:round;stroke-linejoin:round;stroke-miterlimit:4;stroke-dasharray:none;stroke-dashoffset:0;stroke-opacity:1;paint-order:stroke markers fill;filter:url(#filter1107)"
         d="m 341.69336,136.10156 a 16.975772,16.975772 0 0 0 -11.10742,3.49024 16.975772,16.975772 0 0 0 -3.76563,4.05664 14.189089,14.189089 0 0 0 2.8418,7.21484 14.189089,14.189089 0 0 0 19.89453,2.61914 14.189089,14.189089 0 0 0 5.46289,-9.83789 16.975772,16.975772 0 0 0 -0.63281,-0.91992 16.975772,16.975772 0 0 0 -12.69336,-6.62305 z"
         transform="matrix(0.26458333,0,0,0.26458333,0,229.26665)"
         id="path1123"
         inkscape:connector-curvature="0" />
    </g>
    <path
       inkscape:connector-curvature="0"
       id="path959"
       d="m 101.74646,272.46239 a 5.8402946,5.8402946 0 0 0 -1.07857,8.18862 5.8402946,5.8402946 0 0 0 8.1892,1.07813 l 15.54419,-11.92748 a 5.8402946,5.8402946 0 0 0 1.07813,-8.18921 5.8402946,5.8402946 0 0 0 -8.18876,-1.07755 z"
       style="opacity:1;fill:#b8b4a9;fill-opacity:1;stroke:#484945;stroke-width:1.19400585;stroke-linecap:round;stroke-linejoin:round;stroke-miterlimit:4;stroke-dasharray:none;stroke-dashoffset:0;stroke-opacity:1;paint-order:stroke markers fill" />
    <g
       id="g1137"
       transform="matrix(1.1940059,0,0,1.1940059,-2.3995137,-42.212818)">
      <circle
         r="4.2219181"
         cy="267.07468"
         cx="-91.23703"
         id="circle1129"
         style="opacity:1;fill:#ffa71a;fill-opacity:1;stroke:none;stroke-width:3.05738378;stroke-linecap:round;stroke-linejoin:round;stroke-miterlimit:4;stroke-dasharray:none;stroke-dashoffset:0;stroke-opacity:1;paint-order:stroke markers fill"
         transform="rotate(-37.5)" />
      <circle
         transform="rotate(-37.5)"
         style="opacity:1;fill:#ffbc52;fill-opacity:1;stroke:none;stroke-width:3.05738378;stroke-linecap:round;stroke-linejoin:round;stroke-miterlimit:4;stroke-dasharray:none;stroke-dashoffset:0;stroke-opacity:1;paint-order:stroke markers fill"
         id="circle1131"
         cx="-90.914894"
         cy="266.65485"
         r="4.2219181" />
      <circle
         r="3.7541964"
         cy="266.65485"
         cx="-90.914894"
         id="circle1133"
         style="opacity:1;fill:#ffca76;fill-opacity:1;stroke:none;stroke-width:2.71867394;stroke-linecap:round;stroke-linejoin:round;stroke-miterlimit:4;stroke-dasharray:none;stroke-dashoffset:0;stroke-opacity:1;paint-order:stroke markers fill"
         transform="rotate(-37.5)" />
      <path
         style="opacity:0.72100004;fill:url(#radialGradient1139);fill-opacity:1;stroke:none;stroke-width:10.27530289;stroke-linecap:round;stroke-linejoin:round;stroke-miterlimit:4;stroke-dasharray:none;stroke-dashoffset:0;stroke-opacity:1;paint-order:stroke markers fill;filter:url(#filter1107)"
         d="m 341.69336,136.10156 a 16.975772,16.975772 0 0 0 -11.10742,3.49024 16.975772,16.975772 0 0 0 -3.76563,4.05664 14.189089,14.189089 0 0 0 2.8418,7.21484 14.189089,14.189089 0 0 0 19.89453,2.61914 14.189089,14.189089 0 0 0 5.46289,-9.83789 16.975772,16.975772 0 0 0 -0.63281,-0.91992 16.975772,16.975772 0 0 0 -12.69336,-6.62305 z"
         transform="matrix(0.26458333,0,0,0.26458333,0,229.26665)"
         id="path1135"
         inkscape:connector-curvature="0" />
    </g>
    <g
       id="g1149"
       transform="matrix(1.1940059,0,0,1.1940059,13.144856,-54.140432)">
      <circle
         r="4.2219181"
         cy="267.07468"
         cx="-91.23703"
         id="circle1141"
         style="opacity:1;fill:#b6101e;fill-opacity:1;stroke:none;stroke-width:3.05738378;stroke-linecap:round;stroke-linejoin:round;stroke-miterlimit:4;stroke-dasharray:none;stroke-dashoffset:0;stroke-opacity:1;paint-order:stroke markers fill"
         transform="rotate(-37.5)" />
      <circle
         transform="rotate(-37.5)"
         style="opacity:1;fill:#ca1221;fill-opacity:1;stroke:none;stroke-width:3.05738378;stroke-linecap:round;stroke-linejoin:round;stroke-miterlimit:4;stroke-dasharray:none;stroke-dashoffset:0;stroke-opacity:1;paint-order:stroke markers fill"
         id="circle1143"
         cx="-90.914894"
         cy="266.65485"
         r="4.2219181" />
      <circle
         r="3.7541964"
         cy="266.65485"
         cx="-90.914894"
         id="circle1145"
         style="opacity:1;fill:#e41525;fill-opacity:1;stroke:none;stroke-width:2.71867394;stroke-linecap:round;stroke-linejoin:round;stroke-miterlimit:4;stroke-dasharray:none;stroke-dashoffset:0;stroke-opacity:1;paint-order:stroke markers fill"
         transform="rotate(-37.5)" />
      <path
         style="opacity:0.72100004;fill:url(#radialGradient1151);fill-opacity:1;stroke:none;stroke-width:10.27530289;stroke-linecap:round;stroke-linejoin:round;stroke-miterlimit:4;stroke-dasharray:none;stroke-dashoffset:0;stroke-opacity:1;paint-order:stroke markers fill;filter:url(#filter1107)"
         d="m 341.69336,136.10156 a 16.975772,16.975772 0 0 0 -11.10742,3.49024 16.975772,16.975772 0 0 0 -3.76563,4.05664 14.189089,14.189089 0 0 0 2.8418,7.21484 14.189089,14.189089 0 0 0 19.89453,2.61914 14.189089,14.189089 0 0 0 5.46289,-9.83789 16.975772,16.975772 0 0 0 -0.63281,-0.91992 16.975772,16.975772 0 0 0 -12.69336,-6.62305 z"
         transform="matrix(0.26458333,0,0,0.26458333,0,229.26665)"
         id="path1147"
         inkscape:connector-curvature="0" />
    </g>
    <rect
       style="opacity:1;fill:#373e43;fill-opacity:1;stroke:none;stroke-width:3.58201766;stroke-linecap:round;stroke-linejoin:round;stroke-miterlimit:4;stroke-dasharray:none;stroke-dashoffset:0;stroke-opacity:1;paint-order:stroke markers fill"
       id="rect977"
       width="11.169249"
       height="2.5529711"
       x="-126.26391"
       y="247.53996"
       rx="1.2764856"
       ry="1.2764856"
       transform="rotate(-37.5)" />
    <rect
       transform="rotate(-37.5)"
       ry="1.2764856"
       rx="1.2764856"
       y="256.77133"
       x="-114.23363"
       height="2.5529711"
       width="11.169249"
       id="rect979"
       style="opacity:1;fill:#373e43;fill-opacity:1;stroke:none;stroke-width:3.58201766;stroke-linecap:round;stroke-linejoin:round;stroke-miterlimit:4;stroke-dasharray:none;stroke-dashoffset:0;stroke-opacity:1;paint-order:stroke markers fill" />
    <g
       id="g1115"
       transform="matrix(1.1940059,0,0,1.1940059,-13.140668,-52.322036)">
      <circle
         transform="rotate(-37.5)"
         style="opacity:1;fill:#08765a;fill-opacity:1;stroke:none;stroke-width:3.05738378;stroke-linecap:round;stroke-linejoin:round;stroke-miterlimit:4;stroke-dasharray:none;stroke-dashoffset:0;stroke-opacity:1;paint-order:stroke markers fill"
         id="circle949"
         cx="-91.23703"
         cy="267.07468"
         r="4.2219181" />
      <circle
         r="4.2219181"
         cy="266.65485"
         cx="-90.914894"
         id="circle1063"
         style="opacity:1;fill:#0a8c6b;fill-opacity:1;stroke:none;stroke-width:3.05738378;stroke-linecap:round;stroke-linejoin:round;stroke-miterlimit:4;stroke-dasharray:none;stroke-dashoffset:0;stroke-opacity:1;paint-order:stroke markers fill"
         transform="rotate(-37.5)" />
      <circle
         transform="rotate(-37.5)"
         style="opacity:1;fill:#0b9d79;fill-opacity:1;stroke:none;stroke-width:2.71867394;stroke-linecap:round;stroke-linejoin:round;stroke-miterlimit:4;stroke-dasharray:none;stroke-dashoffset:0;stroke-opacity:1;paint-order:stroke markers fill"
         id="circle1065"
         cx="-90.914894"
         cy="266.65485"
         r="3.7541964" />
      <path
         inkscape:connector-curvature="0"
         id="circle1092"
         transform="matrix(0.26458333,0,0,0.26458333,0,229.26665)"
         d="m 341.69336,136.10156 a 16.975772,16.975772 0 0 0 -11.10742,3.49024 16.975772,16.975772 0 0 0 -3.76563,4.05664 14.189089,14.189089 0 0 0 2.8418,7.21484 14.189089,14.189089 0 0 0 19.89453,2.61914 14.189089,14.189089 0 0 0 5.46289,-9.83789 16.975772,16.975772 0 0 0 -0.63281,-0.91992 16.975772,16.975772 0 0 0 -12.69336,-6.62305 z"
         style="opacity:0.72100004;fill:url(#radialGradient1101);fill-opacity:1;stroke:none;stroke-width:10.27530289;stroke-linecap:round;stroke-linejoin:round;stroke-miterlimit:4;stroke-dasharray:none;stroke-dashoffset:0;stroke-opacity:1;paint-order:stroke markers fill;filter:url(#filter1107)" />
    </g>
    <rect
       transform="rotate(-37.5)"
       ry="1.148837"
       rx="1.148837"
       y="247.16635"
       x="-125.32082"
       height="2.2976739"
       width="10.052324"
       id="rect1155"
       style="opacity:1;fill:#4b535a;fill-opacity:1;stroke:none;stroke-width:3.22381592;stroke-linecap:round;stroke-linejoin:round;stroke-miterlimit:4;stroke-dasharray:none;stroke-dashoffset:0;stroke-opacity:1;paint-order:stroke markers fill" />
    <rect
       style="opacity:1;fill:#4b535a;fill-opacity:1;stroke:none;stroke-width:3.22381592;stroke-linecap:round;stroke-linejoin:round;stroke-miterlimit:4;stroke-dasharray:none;stroke-dashoffset:0;stroke-opacity:1;paint-order:stroke markers fill"
       id="rect1157"
       width="10.052324"
       height="2.2976739"
       x="-113.29055"
       y="256.39771"
       rx="1.148837"
       ry="1.148837"
       transform="rotate(-37.5)" />
    <path
       style="opacity:1;fill:#2e3436;fill-opacity:1;stroke:none;stroke-width:1.19400585;stroke-linecap:round;stroke-linejoin:round;stroke-miterlimit:4;stroke-dasharray:none;stroke-dashoffset:0;stroke-opacity:1;paint-order:stroke markers fill"
       d="m 24.631703,254.11031 c -0.707173,0 -1.275997,0.56945 -1.275997,1.27662 v 6.28249 h -6.283111 c -0.707173,0 -1.275996,0.56945 -1.275996,1.27662 v 6.26274 c 0,0.70717 0.568823,1.276 1.275996,1.276 h 6.283111 v 6.28311 c 0,0.70717 0.568824,1.27662 1.275997,1.27662 h 6.262749 c 0.707173,0 1.276613,-0.56945 1.276613,-1.27662 v -6.28311 h 6.283111 c 0.707174,0 1.275996,-0.56883 1.275996,-1.276 v -6.26274 c 0,-0.70717 -0.568822,-1.27662 -1.275996,-1.27662 h -6.283111 v -6.28249 c 0,-0.70717 -0.56944,-1.27662 -1.276613,-1.27662 z"
       id="rect1159"
       inkscape:connector-curvature="0" />
    <path
       inkscape:connector-curvature="0"
       style="opacity:1;fill:#5a5f62;fill-opacity:1;stroke:#4a4d50;stroke-width:0.59700292;stroke-linecap:round;stroke-linejoin:round;stroke-miterlimit:4;stroke-dasharray:none;stroke-dashoffset:0;stroke-opacity:1;paint-order:stroke markers fill"
       d="m 24.631393,254.70759 c -0.386684,0 -0.678718,0.29168 -0.678718,0.67872 v 6.2825 a 0.59706266,0.59706266 0 0 1 -0.596661,0.59727 h -6.282493 c -0.386685,0 -0.678722,0.29354 -0.678722,0.68057 v 6.26152 c 0,0.38704 0.291688,0.67872 0.678722,0.67872 h 6.282493 a 0.59706266,0.59706266 0 0 1 0.596661,0.59728 v 6.28496 c 0,0.38704 0.292034,0.6781 0.678718,0.6781 h 6.263986 c 0.386685,0 0.678722,-0.29141 0.678722,-0.6781 v -6.28496 a 0.59706266,0.59706266 0 0 1 0.596658,-0.59728 h 6.282494 c 0.387036,0 0.678719,-0.29168 0.678719,-0.67872 v -6.26152 c 0,-0.38703 -0.292034,-0.68057 -0.678719,-0.68057 h -6.282494 a 0.59706266,0.59706266 0 0 1 -0.596658,-0.59727 v -6.2825 c 0,-0.38669 -0.292037,-0.67872 -0.678722,-0.67872 z"
       id="path1175" />
    <path
       id="path1173"
       d="m 24.631422,252.81209 c -0.386685,0 -0.678718,0.29169 -0.678718,0.67872 v 6.28251 a 0.59706266,0.59706266 0 0 1 -0.596662,0.59726 H 17.07355 c -0.386685,0 -0.678722,0.29355 -0.678722,0.68057 v 6.26152 c 0,0.38704 0.291687,0.67873 0.678722,0.67873 h 6.282492 a 0.59706266,0.59706266 0 0 1 0.596662,0.59727 v 6.28496 c 0,0.38704 0.292033,0.6781 0.678718,0.6781 h 6.263985 c 0.386685,0 0.678722,-0.29141 0.678722,-0.6781 v -6.28496 a 0.59706266,0.59706266 0 0 1 0.596658,-0.59727 h 6.282495 c 0.387036,0 0.678718,-0.29169 0.678718,-0.67873 v -6.26152 c 0,-0.38702 -0.292033,-0.68057 -0.678718,-0.68057 h -6.282495 a 0.59706266,0.59706266 0 0 1 -0.596658,-0.59726 v -6.28251 c 0,-0.38669 -0.292037,-0.67872 -0.678722,-0.67872 z"
       style="opacity:1;fill:#5a5f62;fill-opacity:1;stroke:#4a4d50;stroke-width:0.59700292;stroke-linecap:round;stroke-linejoin:round;stroke-miterlimit:4;stroke-dasharray:none;stroke-dashoffset:0;stroke-opacity:1;paint-order:stroke markers fill"
       inkscape:connector-curvature="0" />
    <circle
       style="opacity:1;fill:#515558;fill-opacity:1;stroke:#4a4d50;stroke-width:0.59700292;stroke-linecap:round;stroke-linejoin:round;stroke-miterlimit:4;stroke-dasharray:none;stroke-dashoffset:0;stroke-opacity:1;paint-order:stroke fill markers"
       id="path1177"
       cx="27.763412"
       cy="264.18188"
       r="2.9119828" />
    <path
       style="fill:#515558;fill-opacity:1;stroke:#4a4d50;stroke-width:0.14305666px;stroke-linecap:butt;stroke-linejoin:miter;stroke-opacity:1"
       d="m 27.763557,253.77402 -2.708018,4.52164 h 2.708018 2.70774 z"
       id="path1179"
       inkscape:connector-curvature="0"
       inkscape:transform-center-x="-3.0000001e-06"
       inkscape:transform-center-y="-6.8233103" />
    <path
       inkscape:transform-center-x="-6.8233103"
       inkscape:connector-curvature="0"
       id="path1184"
       d="m 38.171307,264.18206 -4.521641,-2.70803 v 2.70803 2.70773 z"
       style="fill:#515558;fill-opacity:1;stroke:#4a4d50;stroke-width:0.14305666px;stroke-linecap:butt;stroke-linejoin:miter;stroke-opacity:1" />
    <path
       style="fill:#515558;fill-opacity:1;stroke:#4a4d50;stroke-width:0.14305666px;stroke-linecap:butt;stroke-linejoin:miter;stroke-opacity:1"
       d="m 27.763265,274.58981 2.708029,-4.52164 h -2.708029 -2.707731 z"
       id="path1186"
       inkscape:connector-curvature="0"
       inkscape:transform-center-y="6.8233103" />
    <path
       inkscape:connector-curvature="0"
       id="path1188"
       d="m 17.355521,264.18176 4.521641,2.70803 v -2.70803 -2.70773 z"
       style="fill:#515558;fill-opacity:1;stroke:#4a4d50;stroke-width:0.14305666px;stroke-linecap:butt;stroke-linejoin:miter;stroke-opacity:1"
       inkscape:transform-center-x="6.8233103" />
    <text
       xml:space="preserve"
       style="font-style:normal;font-weight:normal;font-size:2.99260044px;line-height:1.25;font-family:sans-serif;letter-spacing:1.02870643px;word-spacing:0px;fill:#2e3436;fill-opacity:1;stroke:none;stroke-width:0.07481501"
       x="57.481739"
       y="245.99593"
       id="text1192"
       transform="scale(0.87845838,1.1383579)"><tspan
         sodipodi:role="line"
         id="tspan1190"
         x="57.481739"
         y="245.99593"
         style="font-style:italic;font-variant:normal;font-weight:normal;font-stretch:normal;font-family:FreeSans;-inkscape-font-specification:'FreeSans Italic';letter-spacing:0px;fill:#2e3436;fill-opacity:1;stroke-width:0.07481501">SELECT</tspan></text>
    <text
       transform="scale(0.87845838,1.1383579)"
       id="text1196"
       y="245.99593"
       x="75.676003"
       style="font-style:normal;font-weight:normal;font-size:2.99260044px;line-height:1.25;font-family:sans-serif;letter-spacing:1.02870643px;word-spacing:0px;fill:#2e3436;fill-opacity:1;stroke:none;stroke-width:0.07481501"
       xml:space="preserve"><tspan
         style="font-style:italic;font-variant:normal;font-weight:normal;font-stretch:normal;font-family:FreeSans;-inkscape-font-specification:'FreeSans Italic';letter-spacing:0px;fill:#2e3436;fill-opacity:1;stroke-width:0.07481501"
         y="245.99593"
         x="75.676003"
         id="tspan1194"
         sodipodi:role="line">START</tspan></text>
    <g
       id="g1273"
       transform="matrix(1.551987,0,0,1.551987,-31.766624,-217.70918)"
       style="fill:#2e3436">
      <path
         id="rect1210"
         transform="matrix(0.26458333,0,0,0.26458333,0,229.26665)"
         d="m 200.64258,265.2168 c -0.41975,0 -0.75781,0.33806 -0.75781,0.75781 v 4.79883 c 0,0.41974 0.33806,0.75781 0.75781,0.75781 h 83.33594 c 0.41974,0 0.75781,-0.33807 0.75781,-0.75781 v -4.79883 c 0,-0.41975 -0.33807,-0.75781 -0.75781,-0.75781 z m 34.78515,1.20312 c 0.21826,0 0.40672,0.0441 0.56446,0.13281 0.15775,0.0887 0.27657,0.20713 0.35547,0.35352 0.0815,0.14665 0.13963,0.29602 0.17382,0.44922 0.0368,0.1532 0.0547,0.31339 0.0547,0.48047 0,0.0887 -0.006,0.19136 -0.0195,0.31054 -0.0106,0.11591 -0.0323,0.25645 -0.0664,0.41993 -0.0342,0.16352 -0.0795,0.32374 -0.13476,0.48047 -0.0526,0.15671 -0.12478,0.31392 -0.2168,0.4707 -0.0894,0.15647 -0.19093,0.2946 -0.30664,0.41406 -0.1157,0.11591 -0.25947,0.20799 -0.42773,0.2793 -0.16829,0.0748 -0.35097,0.11328 -0.55078,0.11328 v 0.002 c -0.10518,0 -0.20867,-0.0142 -0.3086,-0.043 -0.0973,-0.0227 -0.19628,-0.0674 -0.29883,-0.13672 -0.10255,-0.0683 -0.19328,-0.15614 -0.26953,-0.26171 -0.0762,-0.10558 -0.13822,-0.24612 -0.18554,-0.41993 -0.0473,-0.17713 -0.0703,-0.37665 -0.0703,-0.60156 0,-0.38843 0.0671,-0.76676 0.20118,-1.13476 0.13408,-0.36798 0.33404,-0.67757 0.5996,-0.92969 0.26819,-0.25215 0.5697,-0.37891 0.90625,-0.37891 z m 8.4043,0 c 0.21826,0 0.40672,0.0441 0.56445,0.13281 0.15776,0.0887 0.27658,0.20713 0.35547,0.35352 0.0815,0.14665 0.13964,0.29602 0.17383,0.44922 0.0368,0.1532 0.0547,0.31339 0.0547,0.48047 0,0.0887 -0.006,0.19136 -0.0195,0.31054 -0.0106,0.11591 -0.0323,0.25645 -0.0664,0.41993 -0.0342,0.16352 -0.0795,0.32374 -0.13476,0.48047 -0.0526,0.15671 -0.12478,0.31392 -0.2168,0.4707 -0.0894,0.15647 -0.1929,0.2946 -0.30859,0.41406 -0.11571,0.11591 -0.25752,0.20799 -0.42579,0.2793 -0.16829,0.0748 -0.35096,0.11328 -0.55078,0.11328 v 0.002 c -0.10517,0 -0.20866,-0.0142 -0.30859,-0.043 -0.0973,-0.0227 -0.19628,-0.0674 -0.29883,-0.13672 -0.10255,-0.0683 -0.19328,-0.15614 -0.26953,-0.26171 -0.0763,-0.10558 -0.13823,-0.24612 -0.18555,-0.41993 -0.0473,-0.17713 -0.0703,-0.37665 -0.0703,-0.60156 0,-0.38843 0.0671,-0.76676 0.20117,-1.13476 0.1341,-0.36798 0.33405,-0.67757 0.59961,-0.92969 0.26819,-0.25215 0.5697,-0.37891 0.90625,-0.37891 z m -11.18164,0.002 c 0.0841,0 0.1627,0.0111 0.23633,0.0312 0.0762,0.0176 0.15805,0.0518 0.24219,0.10547 0.0868,0.0512 0.16023,0.12055 0.2207,0.20899 0.0631,0.0852 0.11546,0.20359 0.16016,0.35351 0.0447,0.14993 0.0722,0.32141 0.0801,0.51563 h -0.3789 c -0.0156,-0.27593 -0.0751,-0.47791 -0.17774,-0.60742 -0.0999,-0.12926 -0.24938,-0.19336 -0.44922,-0.19336 -0.18403,0 -0.35078,0.0556 -0.49804,0.16797 -0.14725,0.11237 -0.26286,0.25051 -0.34961,0.41406 -0.0841,0.16 -0.15504,0.33934 -0.21289,0.53711 -0.0579,0.19754 -0.0981,0.37202 -0.11914,0.52539 -0.0209,0.15345 -0.0312,0.28598 -0.0312,0.39844 0,0.31007 0.062,0.56116 0.18554,0.75195 0.12621,0.18721 0.29101,0.28125 0.4961,0.28125 0.1446,0 0.27237,-0.0299 0.38281,-0.0879 0.11306,-0.058 0.21017,-0.14153 0.28906,-0.25391 0.0789,-0.1159 0.14214,-0.22608 0.18946,-0.32812 0.0473,-0.10558 0.0958,-0.23571 0.14843,-0.39258 h 0.38672 c -0.17617,0.54513 -0.38251,0.92693 -0.61914,1.14844 -0.23665,0.21795 -0.51389,0.32812 -0.83203,0.32812 -0.15514,0 -0.2944,-0.0303 -0.41797,-0.0918 -0.12094,-0.058 -0.21806,-0.13265 -0.28906,-0.22461 -0.071,-0.0955 -0.12844,-0.20372 -0.17578,-0.32618 -0.0473,-0.12598 -0.0812,-0.24699 -0.0996,-0.35937 -0.0156,-0.11591 -0.0234,-0.23238 -0.0234,-0.35156 0,-0.21796 0.0204,-0.44205 0.0625,-0.67383 0.0447,-0.23181 0.11177,-0.46077 0.20117,-0.68555 0.0921,-0.22475 0.20192,-0.42377 0.32813,-0.59766 0.12885,-0.17712 0.28471,-0.32055 0.46875,-0.42968 0.18404,-0.1091 0.38271,-0.16406 0.5957,-0.16406 z m 8.48438,0 h 0.002 c 0.16738,2.3e-4 0.31446,0.0302 0.4375,0.0879 0.12356,0.0544 0.21492,0.12653 0.27539,0.21875 0.0631,0.092 0.10848,0.186 0.13477,0.28125 0.0289,0.092 0.043,0.186 0.043,0.28125 0,0.0648 -0.0103,0.15917 -0.0312,0.28515 h -0.34765 c 0.0106,-0.092 0.0156,-0.15285 0.0156,-0.18359 0,-0.37138 -0.19995,-0.55664 -0.59961,-0.55664 -0.22085,0 -0.40352,0.0664 -0.55078,0.19922 -0.14722,0.13278 -0.22265,0.30723 -0.22265,0.52539 0,0.11237 0.0288,0.20024 0.084,0.26172 0.0578,0.0615 0.16194,0.12003 0.31445,0.17773 l 0.67969,0.25195 c 0.16302,0.058 0.28442,0.16 0.36328,0.30664 0.0789,0.14312 0.11719,0.28956 0.11719,0.43946 0,0.0683 -0.009,0.14889 -0.0273,0.24414 -0.0184,0.092 -0.0587,0.2051 -0.11915,0.33789 -0.0605,0.12926 -0.13647,0.24807 -0.22851,0.35742 -0.092,0.10557 -0.22236,0.1964 -0.39063,0.27148 -0.16829,0.0784 -0.35734,0.11719 -0.57031,0.11719 -0.29711,0 -0.53094,-0.0859 -0.69922,-0.25976 -0.16829,-0.17386 -0.25195,-0.41414 -0.25195,-0.72071 0,-0.10204 0.0115,-0.20988 0.0352,-0.32226 h 0.34375 c -0.0106,0.0852 -0.0156,0.15456 -0.0156,0.20898 0,0.23181 0.0511,0.40525 0.15625,0.51758 0.10517,0.1091 0.27065,0.16211 0.49414,0.16211 0.27345,0 0.49,-0.0747 0.65039,-0.22461 0.16303,-0.14992 0.24414,-0.33222 0.24414,-0.54688 0,-0.12269 -0.0345,-0.22241 -0.10547,-0.30078 -0.0684,-0.0816 -0.18211,-0.15103 -0.33984,-0.20898 l -0.67383,-0.24609 c -0.13145,-0.0476 -0.2388,-0.13549 -0.32031,-0.26172 -0.0789,-0.12599 -0.11719,-0.26746 -0.11719,-0.42774 0,-0.058 0.006,-0.12931 0.0195,-0.21093 0.0131,-0.0852 0.045,-0.19106 0.0977,-0.32032 0.0526,-0.13278 0.11966,-0.25121 0.20117,-0.35351 0.0815,-0.10558 0.20159,-0.1964 0.35938,-0.27149 0.15723,-0.0781 0.33871,-0.11694 0.54297,-0.11718 z m 11.40234,0 c 0.16829,0 0.31393,0.0299 0.4375,0.0879 0.12356,0.0544 0.21492,0.12653 0.27539,0.21875 0.0631,0.092 0.10849,0.186 0.13477,0.28125 0.0289,0.092 0.043,0.186 0.043,0.28125 0,0.0648 -0.0103,0.15917 -0.0312,0.28515 h -0.34765 c 0.0106,-0.092 0.0156,-0.15285 0.0156,-0.18359 0,-0.37138 -0.19995,-0.55664 -0.59961,-0.55664 -0.22085,0 -0.40352,0.0664 -0.55078,0.19922 -0.14725,0.13278 -0.2207,0.30723 -0.2207,0.52539 0,0.11237 0.0268,0.20024 0.082,0.26172 0.0579,0.0615 0.16196,0.12003 0.31445,0.17773 l 0.67969,0.25195 c 0.16302,0.058 0.28442,0.16 0.36328,0.30664 0.0789,0.14312 0.11719,0.28956 0.11719,0.43946 0,0.0683 -0.009,0.14889 -0.0273,0.24414 -0.0184,0.092 -0.0587,0.2051 -0.11914,0.33789 -0.0605,0.12926 -0.13648,0.24807 -0.22852,0.35742 -0.092,0.10557 -0.22238,0.1964 -0.39062,0.27148 -0.16829,0.0784 -0.35736,0.11719 -0.57032,0.11719 -0.29711,0 -0.53094,-0.0859 -0.69922,-0.25976 -0.16829,-0.17386 -0.25195,-0.41414 -0.25195,-0.72071 0,-0.10204 0.0115,-0.20988 0.0352,-0.32226 h 0.34375 c -0.0106,0.0852 -0.0156,0.15456 -0.0156,0.20898 0,0.23181 0.0511,0.40525 0.15625,0.51758 0.1052,0.1091 0.27067,0.16211 0.49414,0.16211 0.27345,0 0.49,-0.0747 0.65039,-0.22461 0.16303,-0.14992 0.24414,-0.33222 0.24414,-0.54688 0,-0.12269 -0.0345,-0.22241 -0.10547,-0.30078 -0.0683,-0.0816 -0.18208,-0.15103 -0.33984,-0.20898 l -0.67383,-0.24609 c -0.13145,-0.0476 -0.2388,-0.13549 -0.32031,-0.26172 -0.0789,-0.12599 -0.11719,-0.26746 -0.11719,-0.42774 0,-0.058 0.006,-0.12931 0.0195,-0.21093 0.0131,-0.0852 0.045,-0.19106 0.0977,-0.32032 0.0526,-0.13278 0.11966,-0.25121 0.20117,-0.35351 0.0815,-0.10558 0.20159,-0.1964 0.35938,-0.27149 0.15775,-0.0784 0.33983,-0.11718 0.54492,-0.11718 z m 4.83594,0 c 0.16829,0 0.31588,0.0299 0.43945,0.0879 0.12357,0.0544 0.21492,0.12653 0.27539,0.21875 0.0631,0.092 0.10846,0.186 0.13477,0.28125 0.0289,0.092 0.043,0.186 0.043,0.28125 0,0.0648 -0.0103,0.15917 -0.0312,0.28515 h -0.34766 c 0.0106,-0.092 0.0156,-0.15285 0.0156,-0.18359 0,-0.37138 -0.19995,-0.55664 -0.59961,-0.55664 -0.22085,0 -0.40547,0.0664 -0.55273,0.19922 -0.14725,0.13278 -0.2207,0.30723 -0.2207,0.52539 0,0.11237 0.0288,0.20024 0.084,0.26172 0.0578,0.0615 0.16194,0.12003 0.31445,0.17773 l 0.67969,0.25195 c 0.16303,0.058 0.28246,0.16 0.36133,0.30664 0.0789,0.14312 0.11914,0.28956 0.11914,0.43946 0,0.0683 -0.009,0.14889 -0.0273,0.24414 -0.0184,0.092 -0.0587,0.2051 -0.11914,0.33789 -0.0605,0.12926 -0.13648,0.24807 -0.22852,0.35742 -0.092,0.10557 -0.22237,0.1964 -0.39062,0.27148 -0.16829,0.0784 -0.35931,0.11719 -0.57227,0.11719 -0.29711,0 -0.52899,-0.0859 -0.69727,-0.25976 -0.16829,-0.17386 -0.25195,-0.41414 -0.25195,-0.72071 0,-0.10204 0.0115,-0.20988 0.0352,-0.32226 h 0.34375 c -0.0106,0.0852 -0.0156,0.15456 -0.0156,0.20898 0,0.23181 0.0511,0.40525 0.15625,0.51758 0.10517,0.1091 0.27065,0.16211 0.49414,0.16211 0.27346,0 0.49001,-0.0747 0.65039,-0.22461 0.16303,-0.14992 0.24414,-0.33222 0.24414,-0.54688 0,-0.12269 -0.0345,-0.22241 -0.10546,-0.30078 -0.0684,-0.0816 -0.18209,-0.15103 -0.33985,-0.20898 l -0.67383,-0.24609 c -0.13147,-0.0476 -0.23882,-0.13549 -0.32031,-0.26172 -0.0789,-0.12599 -0.11719,-0.26746 -0.11719,-0.42774 0,-0.058 0.006,-0.12931 0.0195,-0.21093 0.0131,-0.0852 0.045,-0.19106 0.0976,-0.32032 0.0526,-0.13278 0.11966,-0.25121 0.20117,-0.35351 0.0815,-0.10558 0.2016,-0.1964 0.35938,-0.27149 0.15776,-0.0784 0.33787,-0.11718 0.54297,-0.11718 z m -38.66407,0.0605 h 0.50782 l 0.3164,3.20508 1.36328,-3.20508 h 0.51758 l -0.61133,3.72656 h -0.35156 l 0.50977,-3.09179 -1.31836,3.09179 h -0.38281 l -0.30274,-3.09179 -0.50976,3.09179 h -0.34961 z m 3.33985,0 h 0.36914 l -0.42969,2.61719 c -0.0131,0.0784 -0.0195,0.15305 -0.0195,0.22461 0,0.17738 0.0581,0.32081 0.17383,0.42969 0.1183,0.10557 0.2716,0.1582 0.46094,0.1582 0.22349,0 0.41067,-0.0717 0.56054,-0.21484 0.15252,-0.14665 0.24896,-0.34567 0.29102,-0.59766 l 0.43164,-2.61719 h 0.36914 l -0.42969,2.61719 c -0.0605,0.3714 -0.20867,0.66967 -0.44531,0.89453 -0.234,0.22148 -0.51635,0.33203 -0.84766,0.33203 -0.28396,0 -0.51201,-0.0855 -0.68554,-0.25586 -0.17091,-0.17033 -0.25782,-0.38849 -0.25782,-0.65429 0,-0.10205 0.0198,-0.26518 0.0566,-0.49024 z m 2.83789,0 h 0.37109 l -0.54492,3.3086 h 1.41992 l -0.0664,0.41796 h -1.79102 z m 1.80469,0 h 2.25976 l -0.0664,0.41992 h -0.93946 l -0.54492,3.30664 h -0.37109 l 0.54492,-3.30664 h -0.95117 z m 2.72656,0 h 0.37109 l -0.61133,3.72656 h -0.37109 z m 7.87109,0 h 0.41016 l 0.98633,3.05664 0.5,-3.05664 h 0.35156 l -0.61133,3.72656 h -0.41797 l -0.98242,-3.01953 -0.49805,3.01953 h -0.34961 z m 8.4043,0 h 0.36914 l -0.54297,3.3086 h 1.41992 l -0.0684,0.41796 h -1.78906 z m 2.19531,0 h 1.99414 l -0.0664,0.41992 h -1.625 l -0.19727,1.19141 h 1.5625 l -0.0723,0.41797 h -1.55665 l -0.21289,1.2793 h 1.69141 l -0.0664,0.41796 h -2.0625 z m 5.78906,0 h 0.44336 l 0.53516,1.82617 1.14063,-1.82617 h 0.4375 l -1.45118,2.26563 -0.24023,1.46093 h -0.37109 l 0.24023,-1.46093 z m 4.9043,0 h 2.25977 l -0.0664,0.41992 h -0.93945 l -0.54492,3.30664 h -0.36914 l 0.54296,-3.30664 h -0.94922 z m 2.64844,0 h 1.99414 l -0.0664,0.41992 h -1.625 l -0.19726,1.19141 h 1.5625 l -0.0723,0.41797 h -1.55664 l -0.21289,1.2793 h 1.69141 l -0.0664,0.41796 h -2.0625 z m 2.58789,0 h 0.50781 l 0.31641,3.20508 1.36523,-3.20508 h 0.51563 l -0.61133,3.72656 h -0.35156 l 0.50976,-3.09179 -1.31836,3.09179 h -0.38281 l -0.30273,-3.09179 -0.50782,3.09179 h -0.35156 z m -28.4375,0.35352 c -0.24978,0 -0.47399,0.0993 -0.67383,0.29687 -0.19983,0.19427 -0.35059,0.44047 -0.45312,0.74024 -0.10255,0.29986 -0.1543,0.61729 -0.1543,0.95117 0,0.2046 0.0255,0.38394 0.0781,0.53711 0.0526,0.14992 0.12095,0.2611 0.20508,0.33594 0.0841,0.0748 0.17107,0.12979 0.25781,0.16406 0.0868,0.0343 0.17428,0.0508 0.26368,0.0508 0.17353,0 0.33066,-0.0388 0.47265,-0.11719 0.14199,-0.0784 0.25826,-0.1804 0.34766,-0.30664 0.092,-0.12926 0.16933,-0.26739 0.23242,-0.41406 0.0657,-0.14665 0.11494,-0.29848 0.14649,-0.45508 0.0342,-0.15647 0.0572,-0.28976 0.0703,-0.40234 0.0156,-0.11238 0.0234,-0.20875 0.0234,-0.28711 0,-0.20788 -0.0255,-0.38724 -0.0781,-0.53711 -0.05,-0.14992 -0.11832,-0.26281 -0.20508,-0.33789 -0.0841,-0.0784 -0.17036,-0.13396 -0.25976,-0.16797 -0.0868,-0.034 -0.1788,-0.0508 -0.27344,-0.0508 z m 8.4043,0 c -0.24978,0 -0.47399,0.0993 -0.67383,0.29687 -0.19984,0.19427 -0.35059,0.44047 -0.45313,0.74024 -0.10255,0.29986 -0.15429,0.61729 -0.15429,0.95117 0,0.2046 0.0255,0.38394 0.0781,0.53711 0.0526,0.14992 0.12095,0.2611 0.20508,0.33594 0.0841,0.0748 0.17103,0.12979 0.25781,0.16406 0.0868,0.0343 0.17428,0.0508 0.26367,0.0508 0.17353,0 0.33067,-0.0388 0.47266,-0.11719 0.14198,-0.0784 0.25826,-0.1804 0.34766,-0.30664 0.092,-0.12926 0.16935,-0.26739 0.23242,-0.41406 0.0657,-0.14665 0.11494,-0.29848 0.14648,-0.45508 0.0342,-0.15647 0.0572,-0.28976 0.0703,-0.40234 0.0156,-0.11238 0.0234,-0.20875 0.0234,-0.28711 0,-0.20788 -0.0255,-0.38724 -0.0781,-0.53711 -0.05,-0.14992 -0.11833,-0.26281 -0.20508,-0.33789 -0.0841,-0.0784 -0.17232,-0.13396 -0.26172,-0.16797 -0.0868,-0.034 -0.17684,-0.0508 -0.27148,-0.0508 z"
         style="opacity:1;fill:#2e3436;fill-opacity:1;stroke:none;stroke-width:1.88976383;stroke-linecap:round;stroke-linejoin:round;stroke-miterlimit:4;stroke-dasharray:none;stroke-dashoffset:0;stroke-opacity:1;paint-order:stroke fill markers"
         inkscape:connector-curvature="0" />
      <text
         xml:space="preserve"
         style="font-style:normal;font-weight:normal;font-size:2.59145689px;line-height:1.25;font-family:sans-serif;letter-spacing:0.89081335px;word-spacing:0px;fill:#2e3436;fill-opacity:1;stroke:none;stroke-width:0.06478643"
         x="60.018143"
         y="262.79816"
         id="text1200"
         transform="scale(0.87845835,1.1383579)"><tspan
           id="tspan1202"
           sodipodi:role="line"
           x="60.018143"
           y="262.79816"
           style="font-style:italic;font-variant:normal;font-weight:600;font-stretch:normal;font-family:FreeSans;-inkscape-font-specification:'FreeSans Semi-Bold Italic';letter-spacing:0px;fill:#2e3436;fill-opacity:1;stroke-width:0.06478643">SUPER HOMEBREW</tspan></text>
    </g>
  </g>
</svg>
